<svg xmlns="http://www.w3.org/2000/svg" width="25" height="25" fill="none" viewBox="0 0 25 25">
  <g clip-path="url(#a)">
    <path fill="#D9E0EB" d="M249.133-9.229h-385.695V147.91h385.695V-9.229Z"/>
    <path fill="#B2A8EB" d="M17.2 7.913a1.119 1.119 0 0 0 0-1.585l-1.614-1.615.002.002-2.202-2.2a1.263 1.263 0 0 0-1.768.012L2.52 11.619a1.244 1.244 0 0 0 0 1.765l9.096 9.09a1.25 1.25 0 0 0 1.768 0l3.814-3.812a1.118 1.118 0 0 0 0-1.585 1.125 1.125 0 0 0-1.586 0l-2.889 2.892a.297.297 0 0 1-.427 0l-7.267-7.26a.298.298 0 0 1 0-.426l7.264-7.26c.01-.01.022-.017.03-.025a.295.295 0 0 1 .398.025l2.893 2.89c.438.438 1.15.438 1.587 0Zm-7.109 4.634c0 1.355 1.1 2.454 2.457 2.454a2.455 2.455 0 1 0 0-4.908 2.455 2.455 0 0 0-2.457 2.454Zm12.39-.891L19.64 8.83a1.123 1.123 0 0 0-1.591 1.584l.003.003 1.918 1.915a.3.3 0 0 1 0 .428l-1.89 1.888a1.118 1.118 0 0 0-.004 1.581l.004.004a1.125 1.125 0 0 0 1.587 0l2.815-2.812a1.247 1.247 0 0 0 0-1.762l-.003-.003Z"/>
  </g>
  <defs>
    <clipPath id="a">
      <path fill="#fff" d="M0 0h25v25H0z"/>
    </clipPath>
  </defs>
</svg>
