<svg xmlns="http://www.w3.org/2000/svg" width="25" height="25" fill="none" viewBox="0 0 25 25">
  <g clip-path="url(#a)">
    <path fill="#D9E0EB" d="M206.538-60.748h-385.695V96.389h385.695V-60.748Z"/>
    <path fill="#B2A8EB" d="M22.81 11.194c0-.722.11-1.148.11-1.925 0-1.203-.443-1.591-1.424-1.591h-.722v.851h.22c.501 0 .612.166.612.778 0 .574-.055 1.147-.055 1.813 0 .851.277 1.184.833 1.314v.055c-.556.13-.833.464-.833 1.316 0 .666.055 1.203.055 1.812 0 .63-.129.796-.612.796v.02h-.22v.888h.722c.982 0 1.425-.388 1.425-1.592 0-.796-.111-1.203-.111-1.924 0-.39.24-.797.963-.834v-.962c-.724-.018-.963-.425-.963-.815Zm-3.72 1.13c-.556-.222-1.074-.353-1.074-.722 0-.278.222-.446.63-.446.406 0 .776.167 1.183.464l.741-.982c-.461-.352-1.092-.722-1.944-.722-1.257 0-2.11.722-2.11 1.741 0 .907.796 1.37 1.464 1.628.573.22 1.129.407 1.129.777 0 .277-.222.462-.723.462-.462 0-.926-.185-1.424-.573l-.741 1.073c.555.462 1.406.777 2.11.777 1.48 0 2.277-.777 2.277-1.795-.002-1.016-.798-1.441-1.518-1.683Zm-12.643 2.09c-.13 0-.296-.11-.296-.462V7.678h-2.63c-1 0-1.442.388-1.442 1.591 0 .797.111 1.242.111 1.925 0 .39-.24.797-.963.834v.962c.723.02.963.427.963.815 0 .684-.111 1.092-.111 1.888 0 1.204.444 1.592 1.425 1.592h.722v-.852h-.222c-.464 0-.611-.185-.611-.796 0-.61.055-1.129.055-1.813 0-.852-.276-1.183-.833-1.313v-.058c.557-.128.833-.461.833-1.313 0-.666-.055-1.203-.055-1.813 0-.611.128-.777.611-.777h.499v5.313c0 1.129.388 1.868 1.517 1.868.354 0 .63-.056.834-.129L6.668 14.4c-.11.014-.165.014-.221.014Zm8.163-2.09c-.574-.222-1.093-.353-1.093-.722 0-.278.222-.446.63-.446.407 0 .777.167 1.185.464l.74-.982c-.463-.352-1.093-.722-1.944-.722-1.258 0-2.11.722-2.11 1.741 0 .907.796 1.37 1.462 1.628.575.22 1.13.407 1.13.777 0 .277-.222.462-.723.462-.462 0-.925-.185-1.425-.573l-.722 1.073c.555.462 1.406.777 2.11.777 1.48 0 2.277-.777 2.277-1.795 0-1.016-.795-1.441-1.517-1.683ZM9.149 9.897c-1.35 0-2.647 1.13-2.61 2.907 0 1.832 1.202 2.905 2.796 2.905.666 0 1.406-.241 1.98-.63l-.555-.98c-.406.24-.796.352-1.202.352-.74 0-1.314-.352-1.463-1.203h3.351c.02-.13.056-.389.056-.684.017-1.5-.798-2.667-2.353-2.667ZM8.094 12.23c.112-.739.555-1.094 1.073-1.094.668 0 .926.464.926 1.094H8.094Z"/>
  </g>
  <defs>
    <clipPath id="a">
      <path fill="#fff" d="M0 0h25v25H0z"/>
    </clipPath>
  </defs>
</svg>
