<svg xmlns="http://www.w3.org/2000/svg" width="25" height="25" fill="none" viewBox="0 0 25 25">
  <g clip-path="url(#a)">
    <path fill="#D9E0EB" d="M57.788-60.748h-385.695V96.389H57.788V-60.748Z"/>
    <path fill="#D9E0EB" d="M25.54-.354H-.54v25.71h26.08V-.355Z"/>
    <path fill="#B2A8EB" d="M1.313 11.257v-.267l1.417-.188.961-.24.108.187v.936h.026c.535-.803 1.204-1.177 1.952-1.177.16 0 .32.027.454.054.16.026.32.08.482.187.16.08.32.213.454.4a2.4 2.4 0 0 1 .32.642h.027c.615-.856 1.31-1.283 2.138-1.283.16 0 .322.027.455.053.16.027.32.107.48.187.188.107.322.24.455.4.134.161.241.375.321.67.08.293.133.614.133 1.015v4.411l.696.08v.268H9.117v-.267l.696-.08v-4.679a2.63 2.63 0 0 0-.08-.695c-.054-.187-.108-.348-.16-.428-.054-.107-.135-.16-.242-.213a.427.427 0 0 0-.214-.081c-.053 0-.107-.027-.187-.027-.294 0-.615.16-.882.508-.294.348-.428.802-.428 1.39v4.198l.695.08v.267H5.241v-.267l.695-.08v-4.652c0-.267-.026-.508-.08-.695-.053-.186-.107-.348-.16-.427-.054-.107-.134-.16-.214-.214a.428.428 0 0 0-.214-.08c-.054 0-.108-.027-.188-.027-.294 0-.588.187-.855.588a2.561 2.561 0 0 0-.428 1.443v4.064l.695.08v.267H1.445v-.267l.695-.08v-5.962h-.827Zm11.2.001v-.267l1.417-.16.963-.241.133.187v4.945c0 .268.027.509.08.695.054.187.134.32.188.428.08.08.16.16.267.214.107.053.187.08.24.08h.187c.321 0 .615-.213.882-.614.268-.402.402-.91.402-1.498v-3.769h-.83v-.267l1.418-.16.962-.241.134.187v6.442l.695.08v.268h-2.139l-.213-1.043h-.027c-.107.16-.24.32-.348.428-.107.133-.24.24-.401.401a1.839 1.839 0 0 1-1.23.427c-.16 0-.32-.026-.48-.053a1.822 1.822 0 0 1-.536-.187 1.674 1.674 0 0 1-.508-.374 1.753 1.753 0 0 1-.347-.668c-.107-.294-.134-.615-.134-.99v-4.25h-.775Zm7.94-.001v-.294l1.444-.16.962-.24.107.186v6.47l.721.053v.294h-3.1v-.294l.722-.054v-5.96h-.856Zm.749-3.127a.74.74 0 0 1 .08-.348c.054-.107.107-.214.187-.294.08-.08.187-.133.294-.187a.74.74 0 0 1 .348-.08.73.73 0 0 1 .347.08c.107.054.215.107.295.187.08.08.16.187.186.294.053.107.08.214.08.348a.739.739 0 0 1-.08.347 1.115 1.115 0 0 1-.186.294.69.69 0 0 1-.295.188.832.832 0 0 1-.347.08.74.74 0 0 1-.348-.08c-.107-.054-.214-.108-.294-.188-.08-.08-.133-.187-.187-.294a.739.739 0 0 1-.08-.347Z"/>
  </g>
  <defs>
    <clipPath id="a">
      <path fill="#fff" d="M0 0h25v25H0z"/>
    </clipPath>
  </defs>
</svg>
