<svg xmlns="http://www.w3.org/2000/svg" width="25" height="25" fill="none" viewBox="0 0 25 25">
  <g clip-path="url(#a)">
    <path fill="#D9E0EB" d="M99.916-4.145H-1.513v34.762H99.916V-4.145Z"/>
    <path fill="#B2A8EB" d="M11.681 0c-.053.006-.225.023-.38.035-3.552.32-6.88 2.237-8.987 5.183A12.376 12.376 0 0 0 .107 10.68c-.1.688-.113.89-.113 1.822s.012 1.134.113 1.821c.679 4.696 4.022 8.642 8.553 10.104.813.261 1.668.44 2.642.547.38.042 2.017.042 2.396 0 1.68-.185 3.102-.601 4.506-1.317.215-.11.256-.14.227-.164-.019-.015-.936-1.244-2.037-2.73l-1.999-2.702-2.507-3.708a359.125 359.125 0 0 0-2.523-3.706c-.01-.003-.02 1.645-.025 3.657-.007 3.523-.01 3.664-.053 3.747a.446.446 0 0 1-.215.223c-.078.039-.147.046-.516.046h-.423l-.112-.07a.453.453 0 0 1-.164-.18l-.052-.11.005-4.9.008-4.905.075-.095a.67.67 0 0 1 .181-.15c.1-.048.14-.053.562-.053.5 0 .582.02.712.162.036.039 1.393 2.082 3.017 4.544a12846.5 12846.5 0 0 0 4.934 7.474l1.98 2.999.1-.066a12.81 12.81 0 0 0 2.57-2.254 12.444 12.444 0 0 0 2.943-6.393c.1-.687.113-.89.113-1.822 0-.931-.012-1.134-.113-1.82-.68-4.697-4.022-8.642-8.554-10.104-.8-.26-1.65-.438-2.604-.545C13.5.008 11.884-.02 11.68 0Zm5.12 7.565a.487.487 0 0 1 .246.288c.02.064.025 1.423.02 4.486l-.007 4.396-.775-1.188-.778-1.188v-3.195c0-2.066.01-3.227.025-3.283a.495.495 0 0 1 .241-.308c.1-.052.137-.056.521-.056.363-.001.426.004.506.048Z"/>
  </g>
  <defs>
    <clipPath id="a">
      <path fill="#fff" d="M0 0h25v25H0z"/>
    </clipPath>
  </defs>
</svg>
