<svg xmlns="http://www.w3.org/2000/svg" width="25" height="25" fill="none" viewBox="0 0 25 25">
  <g clip-path="url(#a)">
    <path fill="#D9E0EB" d="M233.859-100.209h-385.695V56.928h385.695v-157.137Z"/>
    <path fill="#B2A8EB" d="M8.27 14.439a1.966 1.966 0 1 0 0-3.933 1.966 1.966 0 0 0 0 3.933Zm-4.65 3.933a1.966 1.966 0 1 0 0-3.933 1.966 1.966 0 0 0 0 3.933Zm17.758 0a1.967 1.967 0 1 0 0-3.933 1.967 1.967 0 0 0 0 3.933Zm-6.458-5.817c-.062-.657-.095-1.204-.598-1.588-.637-.487-1.36-.171-2.249-.492a1.978 1.978 0 0 1-1.521-1.912c0-1.087.896-1.97 2-1.97.82 0 1.524.484 1.834 1.177.474.901.166 1.82.763 2.281.706.547 1.658.147 2.72.665.34.157.63.406.833.714.203.308.322.676.322 1.07 0 .925-.648 1.702-1.523 1.913-.889.321-1.61.006-2.248.492-.717.547-.333 1.463-.917 2.43a2.006 2.006 0 0 1-1.783 1.073c-1.106 0-2.002-.881-2.002-1.969 0-.79.473-1.471 1.156-1.785 1.062-.518 2.014-.118 2.72-.665.407-.316.493-.803.493-1.434Z"/>
  </g>
  <defs>
    <clipPath id="a">
      <path fill="#fff" d="M0 0h25v25H0z"/>
    </clipPath>
  </defs>
</svg>
