<svg xmlns="http://www.w3.org/2000/svg" width="25" height="25" fill="none" viewBox="0 0 25 25">
  <g clip-path="url(#a)">
    <path fill="#D9E0EB" d="M27.594-4.324H-73.834v34.762H27.594V-4.324Z"/>
    <path fill="#D9E0EB" d="M12.5 14.584a2.084 2.084 0 1 0 0-4.168 2.084 2.084 0 0 0 0 4.168Z"/>
    <path fill="#B2A8EB" d="M12.5 17.266c-3.046 0-5.916-.455-8.084-1.283C2.1 15.098.822 13.861.822 12.5c0-1.36 1.277-2.597 3.594-3.483C6.583 8.19 9.454 7.734 12.5 7.734c3.046 0 5.916.456 8.084 1.283 2.317.886 3.594 2.122 3.594 3.483 0 1.361-1.277 2.598-3.594 3.483-2.167.828-5.038 1.283-8.084 1.283Zm0-8.538c-2.928 0-5.672.432-7.73 1.217-1.878.718-2.955 1.649-2.955 2.555 0 .907 1.078 1.838 2.955 2.555 2.058.785 4.802 1.218 7.73 1.218 2.928 0 5.672-.433 7.73-1.218 1.878-.717 2.955-1.648 2.955-2.555 0-.906-1.077-1.838-2.955-2.555-2.058-.785-4.802-1.217-7.73-1.217Z"/>
    <path fill="#B2A8EB" d="M17.16 22.915c-1.222 0-2.723-.792-4.342-2.288-1.584-1.464-3.12-3.45-4.445-5.744-1.523-2.637-2.564-5.351-2.93-7.642-.393-2.45.04-4.174 1.218-4.854.347-.2.743-.301 1.18-.301 1.221 0 2.723.791 4.341 2.287 1.585 1.464 3.121 3.45 4.446 5.744 1.522 2.638 2.563 5.352 2.93 7.642.393 2.45-.04 4.174-1.22 4.854-.345.2-.742.302-1.178.302ZM7.84 3.079c-.26 0-.49.056-.683.168-.785.453-1.052 1.852-.734 3.837.348 2.174 1.346 4.767 2.81 7.303 1.257 2.176 2.77 4.134 4.259 5.51 1.412 1.306 2.714 2.025 3.668 2.025.26 0 .489-.057.682-.169.785-.453 1.053-1.851.735-3.836-.348-2.174-1.346-4.768-2.81-7.303-1.257-2.177-2.77-4.134-4.26-5.511-1.41-1.306-2.713-2.024-3.667-2.024Z"/>
    <path fill="#B2A8EB" d="M7.84 22.915c-.436 0-.832-.101-1.179-.302-1.178-.68-1.611-2.404-1.218-4.854.366-2.29 1.407-5.005 2.93-7.642 1.324-2.293 2.861-4.28 4.445-5.744 1.619-1.496 3.12-2.287 4.342-2.287.436 0 .833.101 1.179.301 1.179.68 1.612 2.404 1.219 4.854-.367 2.29-1.408 5.005-2.93 7.642-1.325 2.294-2.862 4.28-4.446 5.744-1.619 1.497-3.12 2.288-4.342 2.288Zm9.32-19.836c-.954 0-2.256.719-3.668 2.024-1.49 1.377-3.002 3.334-4.26 5.51-1.463 2.537-2.46 5.13-2.81 7.304-.317 1.985-.05 3.384.736 3.836.193.112.423.169.682.169.954 0 2.256-.72 3.668-2.024 1.49-1.377 3.003-3.335 4.26-5.511 1.463-2.536 2.461-5.13 2.81-7.303.318-1.986.05-3.384-.735-3.837a1.343 1.343 0 0 0-.683-.168Z"/>
  </g>
  <defs>
    <clipPath id="a">
      <path fill="#fff" d="M0 0h25v25H0z"/>
    </clipPath>
  </defs>
</svg>
