<svg xmlns="http://www.w3.org/2000/svg" width="25" height="25" fill="none" viewBox="0 0 25 25">
  <g clip-path="url(#a)">
    <path fill="#D9E0EB" d="M309.127-101.996H-76.568V55.141h385.695v-157.137Z"/>
    <path fill="#B2A8EB" d="M16.617 16.52a1.526 1.526 0 0 0-.163-3.042H16.4a1.52 1.52 0 0 0-1.466 1.575c.027.408.19.761.434 1.005-.923 1.82-2.336 3.15-4.454 4.265-1.44.76-2.934 1.032-4.427.842-1.223-.164-2.173-.707-2.77-1.603-.87-1.331-.952-2.77-.218-4.21.516-1.032 1.331-1.793 1.847-2.173a14.67 14.67 0 0 1-.353-1.385c-3.938 2.852-3.53 6.708-2.336 8.529.896 1.357 2.716 2.2 4.726 2.2.543 0 1.086-.055 1.63-.19 3.476-.68 6.11-2.743 7.604-5.813Zm4.78-3.367c-2.064-2.418-5.106-3.749-8.582-3.749h-.435a1.492 1.492 0 0 0-1.331-.815h-.054a1.52 1.52 0 0 0-1.467 1.575 1.526 1.526 0 0 0 1.521 1.467h.055a1.53 1.53 0 0 0 1.33-.923h.49c2.064 0 4.02.597 5.785 1.765 1.358.896 2.335 2.064 2.878 3.476.462 1.141.435 2.255-.054 3.206-.76 1.44-2.037 2.227-3.72 2.227a6.937 6.937 0 0 1-2.662-.57c-.299.271-.842.706-1.223.977 1.168.543 2.363.842 3.505.842 2.607 0 4.535-1.44 5.268-2.88.788-1.574.734-4.29-1.303-6.598ZM7.6 16.982a1.526 1.526 0 0 0 1.521 1.466h.054a1.52 1.52 0 0 0 1.467-1.575 1.526 1.526 0 0 0-1.521-1.466h-.054c-.054 0-.137 0-.19.026-1.114-1.846-1.576-3.856-1.413-6.029.109-1.63.652-3.042 1.603-4.21.787-1.005 2.308-1.494 3.34-1.521 2.88-.054 4.101 3.53 4.183 4.97.353.082.95.272 1.358.408-.326-4.4-3.042-6.682-5.65-6.682-2.443 0-4.698 1.766-5.594 4.373-1.25 3.476-.435 6.818 1.086 9.453-.136.19-.217.488-.19.787Z"/>
  </g>
  <defs>
    <clipPath id="a">
      <path fill="#fff" d="M0 0h25v25H0z"/>
    </clipPath>
  </defs>
</svg>
