<svg xmlns="http://www.w3.org/2000/svg" width="25" height="25" fill="none" viewBox="0 0 25 25">
  <g clip-path="url(#a)">
    <path fill="#D9E0EB" d="M372.341-101.996H-13.354V55.141h385.695v-157.137Z"/>
    <path fill="#B2A8EB" d="M12.64 14.725c-.394.18-.825.417-1.689.89-.327.185-.67.37-.988.543-.023-.022-.045-.05-.068-.073-1.709-1.826-4.87-3.116-4.735-5.569.05-.893.357-3.238 6.07-6.086 4.703-2.318 8.444-1.676 9.09-.252.929 2.03-2.005 5.808-6.861 6.356a3.66 3.66 0 0 1-3.072-.777c-.257-.278-.296-.295-.39-.24-.157.082-.056.336 0 .48a2.866 2.866 0 0 0 1.753 1.38 9.337 9.337 0 0 0 5.696-.565c2.943-1.139 5.241-4.306 4.568-6.96-.675-2.692-5.144-3.58-9.37-2.078a21.289 21.289 0 0 0-7.199 4.133C3.116 8.085 2.748 9.979 2.9 10.77c.542 2.815 4.422 4.647 5.978 6.004l-.212.117c-.777.386-3.736 1.932-4.474 3.569-.838 1.853.134 3.183.776 3.361a4.775 4.775 0 0 0 5.143-2.083 5.16 5.16 0 0 0 .458-4.75c.184-.146.38-.277.587-.39.396-.235.774-.466 1.108-.644a8.582 8.582 0 0 1 3.665-.81c2.658.313 3.183 1.97 3.082 2.67a1.767 1.767 0 0 1-.843 1.195c-.184.116-.246.156-.23.24.023.123.112.116.268.094a2.075 2.075 0 0 0 1.447-1.848c.082-1.638-1.48-3.434-4.245-3.418a6.347 6.347 0 0 0-2.412.481 4.66 4.66 0 0 0-.358.164l.003.002Zm-3.95 6.42c-.884.96-2.112 1.323-2.642 1.016-.574-.328-.347-1.748.736-2.765a14.051 14.051 0 0 1 2.072-1.547c.129-.081.319-.19.547-.327l.062-.034.134-.081a3.814 3.814 0 0 1-.91 3.738Z"/>
  </g>
  <defs>
    <clipPath id="a">
      <path fill="#fff" d="M0 0h25v25H0z"/>
    </clipPath>
  </defs>
</svg>
