<svg xmlns="http://www.w3.org/2000/svg" width="25" height="25" fill="none" viewBox="0 0 25 25">
  <g clip-path="url(#a)">
    <path fill="#D9E0EB" d="M28.216-6.465h-71.785v152.5h71.785v-152.5Z"/>
    <path fill="#B2A8EB" d="M3.776 16.524c-.434 0-.72.238-.72.556 0 .282.17.47.554.578.35.1.424.152.424.31 0 .144-.13.231-.331.231a.835.835 0 0 1-.509-.187l-.226.26c.173.158.424.27.745.27.427 0 .787-.209.787-.606 0-.34-.215-.499-.596-.603-.319-.09-.393-.148-.393-.274 0-.116.103-.192.283-.192.166 0 .314.054.47.156l.176-.271a1.03 1.03 0 0 0-.664-.228Zm2.002 1.578.159.296a.805.805 0 0 1-.47.144c-.367-.004-.56-.216-.56-.625V16.91h-.294v-.332h.293v-.423l.452-.054v.477h.435l-.047.332h-.388v.997c0 .188.06.263.198.263.07 0 .141-.021.222-.068Zm1.924-1.524-.607 1.918c-.141.448-.417.736-.971.78l-.046-.336c.37-.058.491-.18.597-.452h-.156l-.593-1.91h.48l.407 1.603.423-1.603h.466Zm.717 1.964a.724.724 0 0 0 .3-.065l-.096-.325a.313.313 0 0 1-.105.018c-.075 0-.107-.043-.107-.133v-2.275l-.451.05v2.24c0 .313.173.49.459.49Zm2.132-1.054c0 .061-.007.137-.01.188H9.369c.031.39.212.516.459.516.166 0 .303-.054.466-.17l.186.263a1.055 1.055 0 0 1-.691.257c-.58 0-.89-.394-.89-.997 0-.581.3-1.022.83-1.022.522 0 .822.362.822.965Zm-.448-.112v-.022c0-.314-.11-.502-.364-.502-.212 0-.346.145-.37.524h.734Zm1.973-1.614.452.05v2.676h-.399l-.032-.242a.62.62 0 0 1-.533.296c-.466 0-.709-.4-.709-1.007 0-.589.29-1.011.752-1.011.197 0 .353.086.47.206v-.968Zm-.385 2.43c.166 0 .279-.083.385-.246v-.874c-.099-.122-.205-.201-.357-.201-.232 0-.388.201-.388.66 0 .491.138.661.36.661Zm-7.9 1.943c-.536 0-.871.415-.871 1.025 0 .61.335.993.875.993.24 0 .435-.08.604-.22l-.201-.292c-.138.09-.237.137-.378.137-.254 0-.42-.162-.42-.625 0-.458.159-.653.42-.653a.59.59 0 0 1 .378.137l.201-.278a.857.857 0 0 0-.607-.224Zm1.699 0c.55 0 .875.382.875 1.007 0 .603-.328 1.011-.879 1.011-.55 0-.879-.382-.879-1.01 0-.6.328-1.008.883-1.008Zm0 .35c-.265 0-.406.206-.406.657 0 .459.137.662.402.662s.403-.206.403-.662c0-.455-.138-.657-.399-.657Zm3.28-.35c-.248 0-.421.123-.562.321a.456.456 0 0 0-.452-.321c-.236 0-.406.112-.54.303l-.036-.249h-.392v1.91h.452v-1.328c.103-.178.198-.29.357-.29.11 0 .204.069.204.307V22.1h.453v-1.33c.102-.177.197-.289.352-.289.113 0 .205.069.205.307v1.31h.452v-1.382c0-.36-.197-.581-.494-.581Zm1.987 0c.487 0 .692.393.692 1.004 0 .585-.265 1.015-.738 1.015a.583.583 0 0 1-.469-.21v.892l-.452.05V20.19h.395l.025.235a.672.672 0 0 1 .547-.29Zm-.173 1.665c.247 0 .392-.195.392-.658 0-.483-.127-.66-.353-.66-.159 0-.293.111-.381.26v.859c.088.134.2.199.342.199Zm2.072-1.665c.55 0 .875.382.875 1.007 0 .603-.328 1.011-.879 1.011-.55 0-.879-.382-.879-1.01 0-.6.329-1.008.883-1.008Zm0 .35c-.264 0-.406.206-.406.657 0 .459.138.662.402.662.265 0 .403-.206.403-.662 0-.455-.137-.657-.399-.657Zm2.295-.35c-.237 0-.424.112-.569.303l-.035-.249h-.392v1.91h.452v-1.328c.11-.178.23-.29.392-.29.141 0 .23.069.23.307V22.1h.451v-1.383c0-.364-.194-.581-.53-.581Zm2.588.964c0 .062-.008.137-.011.188h-1.172c.032.39.212.516.459.516.166 0 .304-.054.466-.17l.187.264a1.06 1.06 0 0 1-.692.256c-.58 0-.89-.393-.89-.996 0-.582.3-1.022.83-1.022.522 0 .823.361.823.964Zm-.449-.112v-.022c0-.314-.11-.502-.363-.502-.213 0-.347.145-.371.524h.734Zm1.85-.852c-.236 0-.424.112-.569.303l-.035-.249h-.392v1.91h.452v-1.328c.11-.178.23-.29.392-.29.141 0 .23.069.23.307V22.1h.452v-1.383c0-.364-.195-.581-.53-.581Zm1.966 1.578a.438.438 0 0 1-.222.068c-.138 0-.198-.076-.198-.263v-.997h.389l.045-.332h-.434v-.477l-.452.054v.423h-.293v.332h.293v1.008c0 .408.194.62.561.624a.802.802 0 0 0 .47-.144l-.159-.296Zm1.003-1.578c-.435 0-.72.238-.72.556 0 .282.169.47.553.578.35.1.424.152.424.31 0 .145-.13.231-.331.231a.834.834 0 0 1-.509-.188l-.226.26c.173.16.424.271.745.271.427 0 .787-.209.787-.606 0-.34-.215-.498-.596-.603-.318-.09-.392-.148-.392-.274 0-.116.102-.192.282-.192.166 0 .314.054.47.155l.176-.27a1.03 1.03 0 0 0-.663-.228Z"/>
  </g>
  <defs>
    <clipPath id="a">
      <path fill="#fff" d="M0 0h25v25H0z"/>
    </clipPath>
  </defs>
</svg>
