<svg xmlns="http://www.w3.org/2000/svg" width="25" height="25" fill="none" viewBox="0 0 25 25">
  <g clip-path="url(#a)">
    <path fill="#D9E0EB" d="M70.75-9.229h-385.695V147.91H70.75V-9.229Z"/>
    <path fill="#B2A8EB" fill-rule="evenodd" d="M22.451 14.213c-.513-.186-.999-.4-1.506-.536-.693-.186-1.404-.222-2.099.016-.36.124-.676.317-.776.728-.125.512.153.858.536 1.091.493.3 1.024.54 1.547.785.6.28 1.199.56 1.717.985.683.56 1.035 1.28 1.069 2.16.026.702-.081 1.37-.494 1.96-.487.697-1.183 1.098-1.99 1.278-1.548.347-3.09.306-4.6-.23-.386-.136-.385-.138-.385-.537V19.83c.142.097.246.168.348.24a4.536 4.536 0 0 0 3.038.841c.313-.022.638-.118.923-.255.619-.296.747-1.047.236-1.507-.329-.297-.731-.526-1.128-.734-.49-.258-1.02-.44-1.513-.692-.724-.37-1.371-.852-1.696-1.63-.66-1.586-.141-3.464 1.872-4.177 1.01-.357 2.054-.417 3.106-.294.532.063 1.056.195 1.585.292.16.03.218.107.215.28-.012.68-.005 1.362-.005 2.02Zm-7.944-2.377v1.988h-3.095v8.898H8.906v-8.881H5.798v-2.005h8.71Z" clip-rule="evenodd"/>
  </g>
  <defs>
    <clipPath id="a">
      <path fill="#fff" d="M0 0h25v25H0z"/>
    </clipPath>
  </defs>
</svg>
