<svg xmlns="http://www.w3.org/2000/svg" width="25" height="25" fill="none" viewBox="0 0 25 25">
  <g clip-path="url(#a)">
    <path fill="#D9E0EB" d="M372.341-101.996H-13.354V55.141h385.695v-157.137Z"/>
    <path fill="#B2A8EB" d="M1.59 14.572v-.574l2.247-3.234v-.028H1.8v-.882h3.423v.616l-2.198 3.192v.028h2.233v.882H1.59Zm4.334-4.718h1.07v2.716c0 .812.309 1.225.855 1.225.56 0 .868-.392.868-1.225V9.854H9.78V12.5c0 1.456-.735 2.15-1.967 2.15-1.19 0-1.89-.659-1.89-2.164V9.854Zm4.596 4.501.217-.882c.287.147.728.294 1.183.294.49 0 .75-.203.75-.51 0-.295-.225-.463-.792-.666-.784-.273-1.295-.707-1.295-1.393 0-.805.672-1.42 1.785-1.42.532 0 .924.111 1.204.237l-.238.861a2.243 2.243 0 0 0-.987-.224c-.462 0-.686.21-.686.455 0 .301.266.434.875.665.833.308 1.225.742 1.225 1.407 0 .791-.609 1.463-1.904 1.463-.539 0-1.07-.14-1.337-.287Zm4.872.217V10.75h-1.267v-.896h3.626v.896h-1.288v3.822h-1.07Zm-11.051 6.79H2.99l-.336 1.21H1.548l1.442-4.718h1.4l1.463 4.718H4.705l-.364-1.21Zm-1.197-.799h1.043l-.294-1c-.084-.28-.168-.63-.238-.91H3.64c-.07.28-.14.636-.217.91l-.28 1Zm4.32 2.01h-.98v-4.719H7.73l.98 1.73c.28.496.56 1.084.77 1.616h.021c-.07-.623-.09-1.26-.09-1.967v-1.379h.98v4.718H9.27l-1.009-1.82a17.525 17.525 0 0 1-.819-1.666l-.02.007c.027.623.041 1.288.041 2.058v1.421Zm3.853-.022v-4.634a9.524 9.524 0 0 1 1.442-.098c.896 0 1.477.161 1.932.504.49.364.798.945.798 1.778 0 .903-.329 1.526-.784 1.911-.497.413-1.253.61-2.177.61a9.39 9.39 0 0 1-1.21-.07Zm1.071-3.87v3.086c.091.021.238.021.371.021.966.007 1.596-.525 1.596-1.652.007-.98-.567-1.498-1.484-1.498-.238 0-.392.021-.483.042Z"/>
  </g>
  <defs>
    <clipPath id="a">
      <path fill="#fff" d="M0 0h25v25H0z"/>
    </clipPath>
  </defs>
</svg>
