<svg width="26" height="26" viewBox="0 0 26 26" fill="none" xmlns="http://www.w3.org/2000/svg">
<rect width="26" height="26" rx="13" fill="#696969"/>
<g clip-path="url(#clip0_424_129)">
<g clip-path="url(#clip1_424_129)">
<path d="M13 5C8.58266 5 5 8.67255 5 13.2022C5 16.8262 7.292 19.9007 10.4713 20.9855C10.8707 21.0614 11 20.8071 11 20.5911L11 19.0641C8.77466 19.5603 8.31134 18.0962 8.31134 18.0962C7.94734 17.1482 7.42266 16.896 7.42266 16.896C6.69666 16.3868 7.478 16.3977 7.478 16.3977C8.28134 16.4551 8.704 17.2432 8.704 17.2432C9.41734 18.4968 10.5753 18.1346 11.032 17.9247C11.1033 17.395 11.3107 17.0327 11.54 16.8283C9.76334 16.6198 7.89534 15.9165 7.89534 12.7744C7.89534 11.8783 8.208 11.1469 8.71934 10.5727C8.63666 10.3656 8.36266 9.53106 8.79734 8.40188C8.79734 8.40188 9.46934 8.18178 10.998 9.24261C11.636 9.06079 12.32 8.96989 13 8.96646C13.68 8.96989 14.3646 9.06079 15.004 9.24261C16.5314 8.18178 17.202 8.40188 17.202 8.40188C17.6374 9.53174 17.3634 10.3663 17.2806 10.5727C17.794 11.1469 18.104 11.8789 18.104 12.7744C18.104 15.9247 16.2326 16.6185 14.4514 16.8215C14.738 17.0758 15 17.5747 15 18.3402L15 20.5911C15 20.8091 15.128 21.0654 15.534 20.9848C18.7106 19.8987 21 16.8249 21 13.2022C21 8.67255 17.418 5 13 5Z" fill="#C3FF00"/>
</g>
</g>
<defs>
<clipPath id="clip0_424_129">
<rect width="16" height="16" fill="white" transform="translate(5 5)"/>
</clipPath>
<clipPath id="clip1_424_129">
<rect width="16" height="16" fill="white" transform="translate(5 5)"/>
</clipPath>
</defs>
</svg>
