<svg width="26" height="27" viewBox="0 0 26 27" fill="none" xmlns="http://www.w3.org/2000/svg">
<rect y="26.0898" width="26" height="26" rx="13" transform="rotate(-90 0 26.0898)" fill="#696969"/>
<path d="M13 6.44147C15.1361 6.44147 15.3891 6.44961 16.2327 6.48811C17.0127 6.52372 17.4363 6.65401 17.7182 6.76358C18.0916 6.90869 18.3581 7.08206 18.6381 7.36201C18.918 7.64196 19.0914 7.90845 19.2365 8.28189C19.346 8.56378 19.4764 8.98738 19.512 9.76737C19.5504 10.611 19.5586 10.864 19.5586 13.0001C19.5586 15.1362 19.5505 15.3892 19.512 16.2328C19.4764 17.0127 19.346 17.4363 19.2365 17.7182C19.0914 18.0916 18.918 18.3581 18.6381 18.6381C18.3581 18.918 18.0916 19.0914 17.7182 19.2365C17.4363 19.3461 17.0127 19.4764 16.2327 19.512C15.3893 19.5505 15.1363 19.5586 13 19.5586C10.8637 19.5586 10.6108 19.5505 9.76733 19.512C8.98736 19.4764 8.56373 19.3461 8.28184 19.2365C7.90843 19.0914 7.64194 18.9181 7.36196 18.6381C7.08204 18.3582 6.90864 18.0917 6.76352 17.7182C6.65395 17.4363 6.52367 17.0127 6.48806 16.2328C6.44958 15.3891 6.44142 15.1361 6.44142 13C6.44142 10.864 6.44958 10.6109 6.48806 9.76737C6.52367 8.98738 6.65398 8.56378 6.76352 8.28189C6.90864 7.90848 7.08201 7.64199 7.36196 7.36201C7.64191 7.08206 7.9084 6.90869 8.28184 6.76358C8.56373 6.65401 8.98736 6.52372 9.76733 6.48811C10.6109 6.44961 10.8639 6.44147 13 6.44147ZM13 5C10.8273 5 10.5549 5.00921 9.70161 5.04813C8.85011 5.08697 8.26856 5.22222 7.75967 5.41998C7.23361 5.62441 6.78747 5.89796 6.3427 6.34273C5.89797 6.78749 5.62441 7.23364 5.41998 7.75969C5.22222 8.26858 5.08697 8.85009 5.04813 9.70163C5.00921 10.5549 5 10.8273 5 13C5 15.1727 5.00921 15.4451 5.04813 16.2984C5.08697 17.1499 5.22225 17.7314 5.41998 18.2403C5.62441 18.7664 5.89797 19.2125 6.3427 19.6573C6.78747 20.102 7.23361 20.3756 7.75967 20.58C8.26856 20.7778 8.85011 20.9131 9.70161 20.9519C10.5549 20.9908 10.8273 21 13 21C15.1727 21 15.4451 20.9908 16.2984 20.9519C17.1499 20.913 17.7315 20.7778 18.2403 20.58C18.7664 20.3756 19.2126 20.102 19.6573 19.6573C20.1021 19.2125 20.3756 18.7664 20.58 18.2403C20.7778 17.7314 20.9131 17.1499 20.9519 16.2984C20.9908 15.4451 21 15.1727 21 13C21 10.8273 20.9908 10.5549 20.9519 9.70163C20.913 8.85012 20.7778 8.26858 20.58 7.75969C20.3756 7.23363 20.1021 6.78749 19.6573 6.34273C19.2125 5.89799 18.7664 5.62444 18.2403 5.41998C17.7315 5.22222 17.1499 5.08697 16.2984 5.04813C15.4451 5.00921 15.1727 5 13 5Z" fill="#C3FF00"/>
<path d="M12.9997 8.89062C10.7309 8.89062 8.8916 10.7299 8.8916 12.9987C8.8916 15.2676 10.7309 17.1068 12.9997 17.1068C15.2686 17.1068 17.1078 15.2676 17.1078 12.9987C17.1078 10.7299 15.2686 8.89062 12.9997 8.89062ZM12.9997 15.6654C11.527 15.6654 10.333 14.4714 10.333 12.9987C10.333 11.526 11.527 10.332 12.9997 10.332C14.4725 10.332 15.6664 11.526 15.6664 12.9987C15.6664 14.4715 14.4725 15.6654 12.9997 15.6654Z" fill="#C3FF00"/>
<path d="M17.2701 9.68953C17.8003 9.68953 18.2301 9.25972 18.2301 8.72953C18.2301 8.19934 17.8003 7.76953 17.2701 7.76953C16.7399 7.76953 16.3101 8.19934 16.3101 8.72953C16.3101 9.25972 16.7399 9.68953 17.2701 9.68953Z" fill="#C3FF00"/>
</svg>
