<svg width="26" height="27" viewBox="0 0 26 27" fill="none" xmlns="http://www.w3.org/2000/svg">
<rect width="26" height="26" rx="13" fill="#696969"/>
<path d="M7 7.78169C7 7.3003 7.40002 6.91016 7.89358 6.91016L18.2744 6.91016C18.7679 6.91016 19.168 7.3003 19.168 7.78169L19.168 18.2067C19.168 18.688 18.7679 19.0782 18.2744 19.0782L7.89358 19.0782C7.40002 19.0782 7 18.688 7 18.2067L7 7.78169ZM10.7591 17.0963L10.7591 11.6017L8.93319 11.6017L8.93319 17.0963L10.7591 17.0963ZM9.84655 10.8511C10.4831 10.8511 10.8793 10.4298 10.8793 9.90196C10.8679 9.36277 10.4839 8.95286 9.85872 8.95286C9.23359 8.95286 8.8252 9.36353 8.8252 9.90196C8.8252 10.4298 9.22142 10.8511 9.83438 10.8511L9.84655 10.8511ZM13.5791 17.0963L13.5791 14.0277C13.5791 13.8634 13.5913 13.6992 13.6399 13.582C13.7715 13.2542 14.0719 12.9143 14.5769 12.9143C15.2377 12.9143 15.5016 13.4177 15.5016 14.1569L15.5016 17.0963L17.3276 17.0963L17.3276 13.9447C17.3276 12.2565 16.4272 11.4716 15.2256 11.4716C14.2567 11.4716 13.8225 12.004 13.5791 12.3789L13.5791 12.3979L13.5669 12.3979C13.571 12.3916 13.575 12.3852 13.5791 12.3789L13.5791 11.6017L11.7539 11.6017C11.7767 12.1173 11.7539 17.0963 11.7539 17.0963L13.5791 17.0963Z" fill="#C3FF00"/>
</svg>
