<svg width="26" height="27" viewBox="0 0 26 27" fill="none" xmlns="http://www.w3.org/2000/svg">
<rect y="0.0898438" width="26" height="26" rx="13" fill="#696969"/>
<path d="M13.0038 20.392C11.8279 20.392 10.7519 20.2034 9.77568 19.8262C8.79946 19.449 7.95638 18.9166 7.2464 18.2288C6.53642 17.541 5.98176 16.7312 5.5824 15.7994C5.19413 14.8564 5 13.8247 5 12.7043C5 11.5728 5.19413 10.5411 5.5824 9.60928C5.97067 8.66634 6.51978 7.85098 7.22976 7.1632C7.95082 6.47542 8.79946 5.94293 9.77568 5.56576C10.7519 5.18859 11.8279 5 13.0038 5C14.0688 5 15.0506 5.18859 15.9491 5.56576C16.8477 5.94293 17.6242 6.47542 18.2787 7.1632C18.9332 7.85098 19.438 8.66634 19.793 9.60928C20.159 10.5411 20.3421 11.5728 20.3421 12.7043H18.7114C18.7114 11.8058 18.5671 10.9849 18.2787 10.2416C18.0014 9.49834 17.6076 8.85494 17.0973 8.31136C16.5981 7.7567 15.999 7.3296 15.3002 7.03008C14.6013 6.73056 13.8358 6.5808 13.0038 6.5808C12.0609 6.5808 11.2012 6.73056 10.4246 7.03008C9.6481 7.3296 8.97696 7.7567 8.4112 8.31136C7.84544 8.85494 7.40726 9.49834 7.09664 10.2416C6.78602 10.9849 6.63072 11.8058 6.63072 12.7043C6.63072 13.6029 6.78602 14.4238 7.09664 15.167C7.40726 15.9103 7.84544 16.5537 8.4112 17.0973C8.97696 17.6409 9.6481 18.0624 10.4246 18.3619C11.2012 18.6614 12.0609 18.8112 13.0038 18.8112C13.3921 18.8112 13.8081 18.7502 14.2518 18.6282C14.6956 18.5172 15.0672 18.3674 15.3667 18.1789L16.2653 19.4602C15.7994 19.7375 15.2613 19.9594 14.6512 20.1258C14.0411 20.3033 13.4919 20.392 13.0038 20.392ZM12.0054 16.6646C11.3287 16.6646 10.7297 16.4982 10.2083 16.1654C9.68694 15.8215 9.27648 15.3501 8.97696 14.751C8.68854 14.152 8.54432 13.4698 8.54432 12.7043C8.54432 11.9278 8.68854 11.2455 8.97696 10.6576C9.27648 10.0697 9.68694 9.60928 10.2083 9.27648C10.7297 8.93258 11.3287 8.76064 12.0054 8.76064C12.7043 8.76064 13.32 8.93258 13.8525 9.27648C14.3961 9.60928 14.8176 10.0697 15.1171 10.6576C15.4278 11.2455 15.583 11.9278 15.583 12.7043C15.583 13.4698 15.4278 14.152 15.1171 14.751C14.8176 15.3501 14.3961 15.8215 13.8525 16.1654C13.32 16.4982 12.7043 16.6646 12.0054 16.6646ZM12.6877 14.8342C13.0649 14.8342 13.3977 14.7455 13.6861 14.568C13.9745 14.3794 14.2019 14.1243 14.3683 13.8026C14.5347 13.4809 14.6179 13.1148 14.6179 12.7043C14.6179 12.2828 14.5292 11.9167 14.3517 11.6061C14.1742 11.2844 13.9357 11.0348 13.6362 10.8573C13.3366 10.6687 12.9872 10.5744 12.5878 10.5744C12.1996 10.5744 11.8557 10.6631 11.5562 10.8406C11.2677 11.0181 11.0348 11.2677 10.8573 11.5894C10.6909 11.9001 10.6077 12.2661 10.6077 12.6877C10.6077 13.0981 10.6964 13.4698 10.8739 13.8026C11.0625 14.1243 11.3066 14.3794 11.6061 14.568C11.9167 14.7455 12.2772 14.8342 12.6877 14.8342ZM16.9309 17.1472C16.4871 17.1472 16.0878 17.0585 15.7328 16.881C15.3889 16.7034 15.1171 16.4594 14.9174 16.1488C14.7289 15.8271 14.6346 15.4554 14.6346 15.0339L16.3651 14.9341C16.3651 15.2114 16.4317 15.4111 16.5648 15.5331C16.6979 15.6441 16.8698 15.6995 17.0806 15.6995C17.4023 15.6995 17.6852 15.5719 17.9293 15.3168C18.1734 15.0617 18.3619 14.7122 18.495 14.2685C18.6393 13.8137 18.7114 13.2923 18.7114 12.7043H20.3421C20.3421 13.5696 20.1923 14.335 19.8928 15.0006C19.6044 15.6662 19.205 16.1932 18.6947 16.5814C18.1844 16.9586 17.5965 17.1472 16.9309 17.1472ZM14.6346 15.0339L14.5347 8.92704H16.3651V14.9341L14.6346 15.0339Z" fill="#C3FF00"/>
</svg>
