<svg width="26" height="27" viewBox="0 0 26 27" fill="none" xmlns="http://www.w3.org/2000/svg">
<rect y="0.0898438" width="26" height="26" rx="13" fill="#696969"/>
<path d="M9.41883 18.5224L9.66072 18.6658C10.6771 19.269 11.8425 19.588 13.0308 19.5886H13.0334C16.683 19.5886 19.6533 16.619 19.6546 12.9692C19.6552 11.2004 18.9672 9.53737 17.7171 8.2861C16.4669 7.03506 14.8046 6.34561 13.0358 6.34487C9.38346 6.34487 6.41316 9.31403 6.41178 12.9638C6.4113 14.2145 6.76117 15.4326 7.42407 16.4864L7.58163 16.7369L6.91258 19.1795L9.41883 18.5224ZM5 21.0716L6.13016 16.9448C5.43306 15.737 5.06634 14.367 5.06692 12.9634C5.06861 8.5724 8.64207 5 13.0336 5C15.1645 5.00092 17.1647 5.83026 18.6688 7.3356C20.1727 8.84091 21.0007 10.8419 21 12.9699C20.9981 17.3607 17.4239 20.9338 13.0336 20.9338C13.0337 20.9338 13.0332 20.9338 13.0336 20.9338H13.0302C11.6969 20.9333 10.3869 20.5989 9.22331 19.9643L5 21.0716Z" fill="#C3FF00"/>
<path d="M5.06692 12.9656C5.06643 14.3691 5.43316 15.7394 6.13025 16.947L5 21.0735L9.22318 19.9662C10.3868 20.6008 11.6968 20.9352 13.03 20.9357H13.0334C17.4238 20.9357 20.998 17.3626 20.9999 12.9718C21.0006 10.8437 20.1726 8.8428 18.6686 7.33755C17.1644 5.83231 15.1644 5.00287 13.0334 5.00195C8.64217 5.00195 5.06862 8.57435 5.06678 12.9654M7.58172 16.739L7.42408 16.4886C6.76117 15.4346 6.4113 14.2166 6.41179 12.966C6.41323 9.31644 9.38347 6.34705 13.0358 6.34705C14.8045 6.34774 16.4667 7.03726 17.7171 8.28828C18.9673 9.53939 19.6552 11.2026 19.6547 12.9712C19.6531 16.621 16.6828 19.5906 13.0333 19.5906H13.0307C11.8424 19.5899 10.6769 19.2709 9.66059 18.6678L9.41869 18.5244L6.91248 19.1815L7.58172 16.739ZM13.0334 20.9357C13.0334 20.9357 13.0333 20.9357 13.0334 20.9357Z" fill="#C3FF00"/>
<path fill-rule="evenodd" clip-rule="evenodd" d="M11.0422 9.63765C10.8931 9.30615 10.7362 9.29951 10.5943 9.29368C10.4783 9.28874 10.3455 9.28907 10.2129 9.28907C10.0801 9.28907 9.86446 9.33889 9.6821 9.53808C9.49959 9.73728 8.98535 10.2188 8.98535 11.1981C8.98535 12.1775 9.69873 13.1239 9.79811 13.2568C9.89767 13.3895 11.1752 15.4635 13.1983 16.2613C14.8798 16.9244 15.222 16.7925 15.5869 16.7593C15.9519 16.7261 16.7647 16.2779 16.9305 15.8131C17.0964 15.3483 17.0964 14.95 17.0466 14.8668C16.9969 14.7838 16.8641 14.734 16.6651 14.6345C16.466 14.5349 15.4874 14.0534 15.3049 13.9869C15.1224 13.9206 14.9897 13.8874 14.8569 14.0867C14.7243 14.2858 14.343 14.734 14.2269 14.8668C14.1108 14.9998 13.9946 15.0164 13.7956 14.9168C13.5964 14.8169 12.9553 14.607 12.1948 13.9289C11.603 13.4013 11.2036 12.7498 11.0874 12.5505C10.9713 12.3514 11.075 12.2436 11.1748 12.1444C11.2643 12.0552 11.3739 11.9119 11.4735 11.7958C11.5728 11.6795 11.606 11.5966 11.6723 11.4638C11.7387 11.3309 11.7055 11.2147 11.6558 11.1151C11.606 11.0156 11.2192 10.0313 11.0422 9.63765Z" fill="#C3FF00"/>
</svg>
