<svg xmlns="http://www.w3.org/2000/svg" width="25" height="25" fill="none" viewBox="0 0 25 25">
  <g clip-path="url(#a)">
    <path fill="#D9E0EB" d="M205.743-9.229h-385.695V147.91h385.695V-9.229Z"/>
    <path fill="#B2A8EB" stroke="#B2AAEE" stroke-linejoin="round" stroke-width=".5" d="M3.63 16.31H1.907l-.371 1.106h-.197l1.314-3.83h.241l1.314 3.83H4l-.37-1.107Zm-.062-.18-.797-2.387-.803 2.389h1.6v-.003Zm1.246-.564h1.409v.18H4.814v-.18Zm4.402-1.801h-1.6v1.629h1.38v.172h-1.38v1.848H7.42v-3.83h1.823l-.026.181Zm2.224 1.865h-.888v1.786h-.197v-3.83h.871c.899 0 1.3.36 1.3 1.01 0 .59-.343.877-.87 1l1.066 1.82h-.246l-1.037-1.786Zm-.174-.18c.662 0 1.05-.264 1.05-.853 0-.54-.298-.837-1.107-.837h-.657v1.69h.714Zm4.378.86h-1.723l-.37 1.106h-.197l1.313-3.83h.242l1.313 3.83h-.208l-.37-1.107Zm-.061-.18-.797-2.387-.804 2.389h1.6v-.003Zm4.935 1.285h-.191l-.208-1.908a76.997 76.997 0 0 1-.174-1.747l-1.067 3.189h-.186l-1.087-3.19c-.023.33-.107 1.094-.17 1.7l-.19 1.955h-.192l.396-3.83h.292l1.05 3.128 1.027-3.128h.298l.402 3.831Zm3.082-3.65h-1.63v1.549h1.41v.174h-1.41v1.746h1.69v.18h-1.885v-3.83h1.853l-.028.18Z"/>
  </g>
  <defs>
    <clipPath id="a">
      <path fill="#fff" d="M0 0h25v25H0z"/>
    </clipPath>
  </defs>
</svg>
