<svg xmlns="http://www.w3.org/2000/svg" width="25" height="25" fill="none" viewBox="0 0 25 25">
  <g clip-path="url(#a)">
    <path fill="#B2A8EB" d="M291.988-9.229H-93.707V147.91h385.695V-9.229Z"/>
    <path fill="#D9E0EB" d="M27.193-3.074H-1.33v30.178h28.523V-3.074Z"/>
    <path fill="#B2A8EB" fill-rule="evenodd" d="M4.268 13.309H1.063l-.026-.046 3.289-3.294H2.69c0-.451-.001-.884.005-1.316 0-.031.053-.08.09-.089.059-.016.125-.007.188-.007h4.699l.027.05-3.3 3.287h3.323c-.125.13-.212.224-.302.314-1.362 1.363-2.727 2.726-4.088 4.09-.1.1-.202.149-.347.147-.573-.008-1.146-.003-1.747-.003l3.075-3.056a5.708 5.708 0 0 1-.045-.077Zm8.722 2.636h-1.22v-.54c-.031 0-.049-.004-.051 0-.53.885-2.111.844-2.787.16-.557-.563-.745-1.256-.746-2.015 0-.75.19-1.433.763-1.964.666-.617 1.782-.66 2.467-.095.097.079.19.161.284.242V9.428h1.29v6.517Zm-3.545-2.402c.036.374.09.727.28 1.043.225.371.56.552.998.516.44-.036.74-.268.883-.683.19-.545.197-1.1.009-1.646-.156-.452-.502-.688-.97-.696-.487-.008-.846.213-1.01.667-.092.256-.128.532-.19.8Zm9.014.359c0 .614.251 1.005.715 1.142.587.173 1.126-.004 1.434-.466.03-.043.095-.085.145-.086.333-.007.666-.004 1.03-.004-.171.52-.42.95-.878 1.244-.724.466-2.18.498-2.948-.198-.63-.569-.84-1.294-.796-2.112.05-.932.458-1.665 1.308-2.08 1.214-.594 2.966-.226 3.344 1.684.041.208.043.425.06.638.006.074 0 .148 0 .238H18.46Zm.001-.841h2.096c-.134-.728-.463-1.015-1.115-.984-.567.028-.932.39-.98.984Zm-4.461-1.836h1.209v.807l.037.012c.024-.036.048-.072.07-.109.355-.559.85-.86 1.525-.836.136.005.203.045.197.202-.012.338-.003.677-.003 1.007-.213 0-.405-.008-.598.002-.568.027-.957.348-1.082.903a2.86 2.86 0 0 0-.069.598c-.009.63-.004 1.26-.004 1.89v.236H14v-4.712Zm9.961 4.719h-1.265v-4.71h1.265v4.71Zm-1.27-5.462V9.425h1.272v1.056H22.69Z" clip-rule="evenodd"/>
  </g>
  <defs>
    <clipPath id="a">
      <path fill="#fff" d="M0 0h25v25H0z"/>
    </clipPath>
  </defs>
</svg>
