<svg xmlns="http://www.w3.org/2000/svg" width="25" height="25" fill="none" viewBox="0 0 25 25">
  <g clip-path="url(#a)">
    <path fill="#D9E0EB" d="M271.359-100.209h-385.695V56.928h385.695v-157.137Z"/>
    <path fill="#B2A8EB" d="M9.223 15.69c-.57.195-1.652.462-2.734.462-1.495 0-2.576-.376-3.33-1.106-.753-.705-1.167-1.774-1.154-2.977.012-2.722 1.993-4.278 4.679-4.278 1.057 0 1.871.207 2.272.401l-.389 1.483c-.45-.195-1.008-.353-1.908-.353-1.543 0-2.71.875-2.71 2.65 0 1.689 1.058 2.685 2.577 2.685.425 0 .765-.048.911-.121v-1.714H6.173v-1.446h3.05v4.315Zm1.447-7.813h1.86v6.635h3.257v1.556H10.67V7.877Zm6.212.11c.486-.097 1.47-.17 2.394-.17 1.13 0 1.823.109 2.418.461.571.304.985.863.985 1.604 0 .73-.426 1.41-1.35 1.75v.024c.936.255 1.63.96 1.63 2.018 0 .74-.34 1.324-.852 1.737-.595.474-1.591.742-3.22.742-.912 0-1.592-.061-2.005-.122V7.987Zm1.835 3.135h.608c.972 0 1.495-.4 1.495-1.008 0-.62-.474-.948-1.313-.948-.401 0-.632.024-.79.048v1.908Zm0 3.634c.182.024.401.024.717.024.839 0 1.58-.316 1.58-1.179 0-.826-.741-1.154-1.665-1.154h-.632v2.309Z"/>
  </g>
  <defs>
    <clipPath id="a">
      <path fill="#fff" d="M0 0h25v25H0z"/>
    </clipPath>
  </defs>
</svg>
