<svg xmlns="http://www.w3.org/2000/svg" width="25" height="25" fill="none"><g clip-path="url(#a)"><path fill="#d9e0eb" d="M286.716-60.748H-98.979V96.389h385.695z"/><path fill="#b2a8eb" fill-rule="evenodd" d="m18.306 9.525-.4-.228a8 8 0 0 0-1.071-.48 14 14 0 0 0-.538-.18 10 10 0 0 0-.67-.183 9 9 0 0 0-.602-.126l-.339-.06q-.17-.026-.34-.048a8 8 0 0 0-.268-.035q-.168-.019-.336-.033l-.134-.012-.31-.024-.027-.001q-.139-.008-.276-.013c-.277-.008-.554-.018-.831-.012q-.186.003-.372.012-.276.015-.553.036a12 12 0 0 0-1.171.147 11 11 0 0 0-1.387.32 9 9 0 0 0-.98.344 8 8 0 0 0-.966.469 6.4 6.4 0 0 0-.887.604 4.5 4.5 0 0 0-.703.708q-.235.299-.4.64a2.8 2.8 0 0 0-.23.74 2.4 2.4 0 0 0-.032.396q.002.319.082.629c.058.228.148.443.26.65.194.356.447.664.74.942.27.258.566.48.881.68a8.5 8.5 0 0 0 1.696.812 2 2 0 0 0 .653.092c.19-.009.377-.033.555-.106a1.3 1.3 0 0 0 .38-.241c.202-.185.327-.417.402-.677.057-.195.085-.395.1-.598.014-.175.009-.351.01-.527q0-.03-.003-.06-.005-.011-.018-.017c-.005-.002-.014.003-.017.008l-.027.046a1.4 1.4 0 0 1-.618.623 1.9 1.9 0 0 1-.674.207 2 2 0 0 1-.385.008 2.1 2.1 0 0 1-.776-.186 2 2 0 0 1-.793-.666 2.4 2.4 0 0 1-.337-.704 3 3 0 0 1-.124-.696 3.4 3.4 0 0 1 .012-.647q.034-.341.137-.668.137-.443.428-.807a1.8 1.8 0 0 1 .319-.31c.145-.113.298-.21.468-.28a2.5 2.5 0 0 1 .98-.162c.395.02.757.131 1.063.394.12.103.217.228.3.363l.033.051q.004.005.01.007c.015.001.02-.009.02-.021l.003-.06v-.528l.002-.07c.024-.023.05-.017.074-.017h.602c.023 0 .045-.005.07.011l.007.036v4.421q.001.148-.004.297c-.013.283-.053.56-.136.831-.073.241-.18.466-.335.666a2.7 2.7 0 0 1-.999.765 4 4 0 0 1-.78.257 5 5 0 0 1-.439.08q-.204.027-.409.05c-.08.009-.161.01-.242.018-.198.018-.396.017-.594.022-.167.004-.334-.003-.5-.007-.13-.002-.13-.003-.25-.047q-.53-.192-1.038-.439a9 9 0 0 1-.81-.447 8 8 0 0 1-.735-.517 6.4 6.4 0 0 1-.696-.64 5 5 0 0 1-.72-.976 4 4 0 0 1-.387-.962 3.8 3.8 0 0 1-.112-.89c-.002-.12.01-.242.02-.363.01-.14.037-.277.065-.413a3.4 3.4 0 0 1 .156-.525q.14-.37.35-.707.24-.389.545-.73a6.4 6.4 0 0 1 .798-.747q.439-.345.921-.626a9 9 0 0 1 1.094-.546 12 12 0 0 1 1.953-.624 16 16 0 0 1 .675-.136q.248-.046.5-.074c.168-.018.335-.043.503-.06.132-.015.264-.023.397-.032q.21-.014.418-.023.172-.006.345-.008c.07-.002.14-.008.21-.006q.354.008.709.022a14 14 0 0 1 .895.072c.232.031.464.06.694.101q.472.083.938.199a11 11 0 0 1 1.795.607q.469.203.913.454.552.311 1.05.7.269.21.517.447l.037.037q0 .004-.004.007m-8.102 2.825a3 3 0 0 0-.025-.364 2.4 2.4 0 0 0-.1-.447 1.6 1.6 0 0 0-.273-.516 1.2 1.2 0 0 0-.856-.46 1.8 1.8 0 0 0-.504.023 1.26 1.26 0 0 0-.627.325c-.17.158-.286.352-.367.568-.091.24-.132.49-.145.746q-.015.27.02.54c.021.167.048.334.099.495.067.212.16.41.305.582.135.159.296.283.492.357.154.059.314.078.477.082a1.6 1.6 0 0 0 .592-.114q.369-.171.582-.517.113-.182.181-.385a3 3 0 0 0 .15-.915Zm8.818 2.577c-.02.018-.041.013-.061.013h-1c-.025 0-.05.005-.075-.01q-.006-.018-.008-.038v-4.78l.003-.101q.025-.009.042-.011.03-.002.06-.001h3.388c.03 0 .063-.006.096.01q.005.022.006.045v.872q-.001.021-.005.049-.022.006-.04.007-.038.002-.075.001l-2.291.003q-.028.004-.032.03l-.003.048v.79c0 .073.006.077.077.079h1.961l.09.002c.004.02.009.033.01.048q.003.024.001.047v.792l-.001.06q-.003.033-.034.035l-.075.002h-1.912l-.081.004q-.033.002-.034.035-.003.037-.002.074v1.812c0 .028.004.058-.005.083" clip-rule="evenodd"/><path fill="#b2a8eb" fill-rule="evenodd" d="M13.165 10.975c-.018-.025-.011-.051-.011-.075v-.845q.001-.021.005-.05.022-.006.04-.007.027-.002.054-.001h3.886c.031 0 .063-.005.097.009q.006.018.008.037.002.024.001.047v.798l-.003.082q-.025.008-.042.01-.034.002-.067 0h-1.238l-.067.002c-.04.002-.048.01-.05.048v3.805c0 .03.006.063-.01.097l-.037.007h-1.02c-.026 0-.054.007-.081-.012q-.004-.015-.005-.031v-3.799l-.003-.101q-.024-.01-.041-.013-.035-.003-.068-.002h-1.27c-.028 0-.054.004-.078-.006m5.12 4.527q-.024.026-.052.051a7 7 0 0 1-.746.613q-.39.279-.81.514-.579.322-1.195.567a12 12 0 0 1-2.367.667q-.244.045-.492.08c-.17.023-.34.039-.51.059a9 9 0 0 1-.572.042l-.263.012a11 11 0 0 1-.723.01c-.158-.004-.315-.006-.473-.015a16 16 0 0 1-.485-.034 10 10 0 0 1-.37-.032q-.23-.028-.461-.061-.146-.021-.293-.046c-.006 0-.011-.003-.028-.007.038-.01.066-.018.094-.023a5.2 5.2 0 0 0 1.095-.335q.447-.188.844-.464a3 3 0 0 0 .298-.233c.035-.032.07-.046.116-.038q.053.009.107.013l.403.037q.115.01.23.014c.313.01.626.022.939.015q.27-.005.54-.016.206-.008.411-.025.185-.016.37-.035l.282-.03.274-.037a13 13 0 0 0 .62-.098 11 11 0 0 0 1.705-.458 8 8 0 0 0 1.028-.446 6 6 0 0 0 .476-.269zm-5.797-.585q-.023.006-.046.007h-.69q-.017 0-.042-.006-.006-.02-.007-.039-.002-.034 0-.067v-5.94l.002-.105c.018-.003.033-.009.048-.009h.69c.015 0 .03.005.046.007l.007.028v6.096q-.002.013-.008.028m10.555-4.761c-.022.016-.023.037-.029.056l-.092.332-.017.05a.2.2 0 0 1-.106 0l-.022-.07-.083-.305c-.006-.02-.006-.045-.03-.063q-.008.013-.012.023l-.001.088v.257l-.003.067c-.041.017-.078.01-.12.006q-.006-.02-.008-.038v-.514l.006-.034q.015-.005.027-.007h.149q.034 0 .043.033l.025.091.055.216c.005.02.007.04.025.052.021-.005.021-.023.025-.037l.076-.287c.006-.022.01-.044.027-.065.058-.008.12-.004.18-.003q.027.001.028.031.003.017.002.034v.493c-.003.029-.01.038-.037.038h-.076c-.024-.025-.019-.052-.019-.075v-.285q0-.03-.003-.06-.002-.011-.01-.024m-.949-.024c-.057-.015-.112.003-.162-.013a.16.16 0 0 1-.007-.09q.004-.023.027-.026l.04-.001h.391c.037.002.044.009.047.043v.034c-.002.038-.01.045-.05.047h-.08q-.023.002-.044.006c-.017.026-.012.051-.012.075v.317l-.004.067c-.038.016-.074.01-.11.008q-.023-.002-.025-.026l-.002-.054v-.31c0-.025.003-.05-.01-.077Z" clip-rule="evenodd"/></g></svg>