<svg xmlns="http://www.w3.org/2000/svg" width="25" height="25" fill="none" viewBox="0 0 25 25">
  <g clip-path="url(#a)">
    <path fill="#D9E0EB" d="M286.716-60.748H-98.979V96.389h385.695V-60.748Z"/>
    <path fill="#B2A8EB" fill-rule="evenodd" d="M18.306 9.525c-.134-.076-.265-.154-.4-.228a7.677 7.677 0 0 0-1.071-.48 13.565 13.565 0 0 0-.538-.18 9.57 9.57 0 0 0-.67-.183 8.599 8.599 0 0 0-.602-.126c-.113-.019-.225-.041-.339-.06-.113-.018-.227-.033-.34-.048a8.186 8.186 0 0 0-.268-.035c-.112-.013-.224-.023-.336-.033a8.464 8.464 0 0 0-.134-.012l-.31-.024-.027-.001c-.092-.005-.185-.01-.276-.013-.277-.008-.554-.018-.831-.012-.124.003-.248.005-.372.012-.184.01-.368.022-.553.036a11.56 11.56 0 0 0-1.171.147 11.159 11.159 0 0 0-1.387.32 9.41 9.41 0 0 0-.98.344 8.44 8.44 0 0 0-.966.469 6.394 6.394 0 0 0-.887.604 4.533 4.533 0 0 0-.703.708c-.156.2-.291.412-.4.64a2.765 2.765 0 0 0-.23.74 2.43 2.43 0 0 0-.032.396c0 .213.03.422.082.629.058.228.148.443.26.65.194.356.447.664.74.942.27.258.566.48.881.68a8.52 8.52 0 0 0 1.696.812 2.067 2.067 0 0 0 .653.092c.19-.009.377-.033.555-.106a1.31 1.31 0 0 0 .38-.241c.202-.185.327-.417.402-.677.057-.195.085-.395.1-.598.014-.175.009-.351.01-.527 0-.02 0-.04-.003-.06-.002-.007-.01-.014-.018-.017-.005-.002-.014.003-.017.008a.371.371 0 0 0-.027.046 1.41 1.41 0 0 1-.618.623 1.938 1.938 0 0 1-.674.207 2.133 2.133 0 0 1-.385.008 2.057 2.057 0 0 1-.776-.186 2.006 2.006 0 0 1-.793-.666 2.43 2.43 0 0 1-.337-.704 2.91 2.91 0 0 1-.124-.696 3.4 3.4 0 0 1 .012-.647c.023-.228.068-.45.137-.668.092-.295.234-.565.428-.807a1.8 1.8 0 0 1 .319-.31c.145-.113.298-.21.468-.28a2.5 2.5 0 0 1 .98-.162c.395.02.757.131 1.063.394.12.103.217.228.3.363l.033.051c.002.004.007.005.01.007.015.001.02-.009.02-.021a.675.675 0 0 0 .003-.06v-.528l.002-.07c.024-.023.05-.017.074-.017h.602c.023 0 .045-.005.07.011.002.01.006.023.007.036v4.421c0 .099 0 .198-.004.297-.013.283-.053.56-.136.831-.073.241-.18.466-.335.666a2.704 2.704 0 0 1-.999.765 4.009 4.009 0 0 1-.78.257 4.983 4.983 0 0 1-.439.08c-.136.017-.272.036-.409.05-.08.009-.161.01-.242.018-.198.018-.396.017-.594.022-.167.004-.334-.003-.5-.007-.13-.002-.13-.003-.25-.047-.353-.129-.7-.273-1.038-.439a9.167 9.167 0 0 1-.81-.447 8.04 8.04 0 0 1-.735-.517 6.389 6.389 0 0 1-.696-.64 5.012 5.012 0 0 1-.72-.976 3.979 3.979 0 0 1-.387-.962 3.813 3.813 0 0 1-.112-.89c-.002-.12.01-.242.02-.363.01-.14.037-.277.065-.413a3.44 3.44 0 0 1 .156-.525c.094-.246.21-.482.35-.707.159-.26.342-.502.545-.73a6.4 6.4 0 0 1 .798-.747c.292-.231.6-.438.921-.626a9.338 9.338 0 0 1 1.094-.546 11.857 11.857 0 0 1 1.953-.624 15.5 15.5 0 0 1 .675-.136c.166-.03.332-.056.5-.074.168-.018.335-.043.503-.06.132-.015.264-.023.397-.032.14-.009.279-.017.418-.023.115-.005.23-.006.345-.008.07-.002.14-.008.21-.006.236.006.472.012.709.022a14.158 14.158 0 0 1 .895.072c.232.031.464.06.694.101.315.055.627.122.938.199a11.25 11.25 0 0 1 1.795.607c.312.135.617.287.913.454.367.208.719.44 1.05.7.18.14.351.29.517.447l.037.037c0 .003-.002.005-.004.007Zm-8.102 2.825a2.614 2.614 0 0 0-.025-.364 2.418 2.418 0 0 0-.1-.447 1.618 1.618 0 0 0-.273-.516 1.212 1.212 0 0 0-.856-.46 1.757 1.757 0 0 0-.504.023 1.261 1.261 0 0 0-.627.325c-.17.158-.286.352-.367.568-.091.24-.132.49-.145.746-.01.18-.003.36.02.54.021.167.048.334.099.495.067.212.16.41.305.582.135.159.296.283.492.357.154.059.314.078.477.082a1.562 1.562 0 0 0 .592-.114c.247-.113.439-.288.582-.517.076-.121.135-.25.181-.385a2.93 2.93 0 0 0 .15-.915Zm8.818 2.577c-.02.018-.041.013-.061.013h-1c-.025 0-.05.005-.075-.01-.003-.012-.007-.025-.008-.038v-4.78l.003-.101c.017-.005.03-.01.042-.011.02-.002.04-.001.06-.001h3.388c.03 0 .063-.006.096.01.002.014.006.03.006.045v.872c0 .015-.003.03-.005.049-.015.003-.028.007-.04.007-.025.002-.05.001-.075.001a4070.452 4070.452 0 0 0-2.291.003c-.018.002-.03.013-.032.03a.351.351 0 0 0-.003.048v.79c0 .073.006.077.077.079h1.961l.09.002c.004.02.009.033.01.048.003.016.001.032.001.047v.792l-.001.06c-.003.023-.012.033-.034.035-.025.002-.05.002-.075.002h-1.912a.88.88 0 0 0-.081.004c-.023.002-.032.012-.034.035-.002.024-.002.05-.002.074v1.812c0 .028.004.058-.005.083Z" clip-rule="evenodd"/>
    <path fill="#B2A8EB" fill-rule="evenodd" d="M13.165 10.975c-.018-.025-.011-.051-.011-.075v-.845c0-.015.003-.03.005-.05.015-.003.027-.007.04-.007.018-.002.036-.001.054-.001h3.886c.031 0 .063-.005.097.009.003.012.007.024.008.037.002.016.001.032.001.047v.798l-.003.082c-.017.004-.03.01-.042.01-.023.002-.045 0-.067 0h-1.238c-.022 0-.044 0-.067.002-.04.002-.048.01-.05.048v3.805c0 .03.006.063-.01.097-.011.002-.024.006-.037.007h-1.02c-.026 0-.054.007-.081-.012-.002-.01-.005-.02-.005-.031v-3.799l-.003-.101c-.017-.006-.029-.012-.041-.013-.023-.002-.046-.002-.068-.002h-1.27c-.028 0-.054.004-.078-.006Zm5.12 4.527c-.017.017-.033.035-.052.051a7.256 7.256 0 0 1-.746.613c-.26.186-.53.357-.81.514-.386.215-.784.404-1.195.567a12.057 12.057 0 0 1-2.367.667c-.163.03-.327.057-.492.08-.17.023-.34.039-.51.059a9.22 9.22 0 0 1-.572.042l-.263.012a11.1 11.1 0 0 1-.723.01c-.158-.004-.315-.006-.473-.015a16.023 16.023 0 0 1-.485-.034 9.739 9.739 0 0 1-.37-.032c-.153-.018-.307-.04-.461-.061-.098-.014-.195-.03-.293-.046-.006 0-.011-.003-.028-.007.038-.01.066-.018.094-.023a5.24 5.24 0 0 0 1.095-.335c.297-.126.58-.279.844-.464a2.8 2.8 0 0 0 .298-.233c.035-.032.07-.046.116-.038.035.006.071.01.107.013l.403.037c.077.006.153.012.23.014.313.01.626.022.939.015.18-.004.36-.008.54-.016.137-.005.275-.014.411-.025.124-.01.246-.023.37-.035l.282-.03a9.96 9.96 0 0 0 .274-.037 13.208 13.208 0 0 0 .62-.098 11.257 11.257 0 0 0 1.705-.458 8.333 8.333 0 0 0 1.028-.446 6.131 6.131 0 0 0 .476-.269l.008.008Zm-5.797-.585c-.016.003-.03.007-.046.007h-.69c-.012 0-.025-.003-.042-.006-.003-.014-.007-.026-.007-.039-.002-.022 0-.045 0-.067v-5.94c0-.035 0-.068.002-.105.018-.003.033-.009.048-.009h.69c.015 0 .03.005.046.007.002.012.007.02.007.028v6.096c0 .009-.005.017-.008.028Zm10.555-4.761c-.022.016-.023.037-.029.056l-.092.332-.017.05a.194.194 0 0 1-.106 0l-.022-.07-.083-.305c-.006-.02-.006-.045-.03-.063-.005.009-.01.016-.012.023l-.001.088v.257c0 .022-.003.044-.003.067-.041.017-.078.01-.12.006-.003-.013-.008-.026-.008-.038v-.514c0-.01.004-.022.006-.034.01-.002.019-.007.027-.007h.149c.023 0 .037.01.043.033l.025.091.055.216c.005.02.007.04.025.052.021-.005.021-.023.025-.037l.076-.287c.006-.022.01-.044.027-.065.058-.008.12-.004.18-.003.018 0 .027.012.028.031.002.011.002.023.002.034v.493c-.003.029-.01.038-.037.038h-.076c-.024-.025-.019-.052-.019-.075v-.285c0-.02 0-.04-.003-.06 0-.008-.006-.015-.01-.024Zm-.949-.024c-.057-.015-.112.003-.162-.013a.158.158 0 0 1-.007-.09c.002-.016.012-.024.027-.026l.04-.001h.391c.037.002.044.009.047.043v.034c-.002.038-.01.045-.05.047h-.08c-.016.001-.03.004-.044.006-.017.026-.012.051-.012.075v.317c0 .022-.003.044-.004.067-.038.016-.074.01-.11.008-.015 0-.024-.011-.025-.026-.002-.018-.002-.036-.002-.054v-.31c0-.025.003-.05-.01-.077Z" clip-rule="evenodd"/>
  </g>
  <defs>
    <clipPath id="a">
      <path fill="#fff" d="M0 0h25v25H0z"/>
    </clipPath>
  </defs>
</svg>
