<svg xmlns="http://www.w3.org/2000/svg" width="25" height="25" fill="none" viewBox="0 0 25 25">
  <g clip-path="url(#a)">
    <path fill="#D9E0EB" d="M65.179-120.395H-6.607v152.5H65.18v-152.5Z"/>
    <path fill="#B2A8EB" d="M3.076 5.967h.598V7.64c0 .754-.362 1.018-.944 1.018a1.56 1.56 0 0 1-.436-.063l.067-.484a.985.985 0 0 0 .307.047c.251 0 .408-.114.408-.526V5.967Zm1.116 2.031c.161.083.409.165.664.165.276 0 .42-.113.42-.287 0-.165-.125-.259-.443-.373-.44-.153-.727-.397-.727-.782 0-.452.377-.797 1.002-.797.298 0 .519.063.676.133l-.134.484a1.253 1.253 0 0 0-.554-.126c-.26 0-.385.118-.385.256 0 .169.15.243.491.373.468.172.688.416.688.79 0 .443-.342.82-1.069.82-.302 0-.601-.078-.75-.16l.121-.496Zm3.037-.613v.397h-1.03v-.397h1.03ZM3.175 12.65l-.189.68h-.62l.809-2.648h.786l.82 2.648h-.643l-.205-.68h-.758Zm.671-.448-.165-.561c-.047-.158-.094-.354-.133-.511H3.54c-.04.157-.079.357-.122.51l-.157.562h.585Zm1.289-1.485c.192-.032.479-.055.797-.055.393 0 .668.059.857.208.157.126.243.31.243.554 0 .338-.24.57-.468.652v.012c.185.075.287.252.354.496.082.298.165.644.216.746h-.612c-.043-.075-.106-.29-.185-.617-.07-.33-.184-.42-.428-.424h-.18v1.04h-.594v-2.612Zm.593 1.14h.236c.298 0 .475-.15.475-.381 0-.244-.165-.366-.44-.37-.145 0-.228.012-.27.02v.73Zm2.247-.673h-.71v-.502H9.3v.502h-.723v2.146h-.602v-2.146Zm3.953.795c0 .868-.527 1.394-1.301 1.394-.786 0-1.246-.593-1.246-1.347 0-.794.507-1.387 1.289-1.387.814 0 1.258.609 1.258 1.34Zm-1.914.035c0 .518.244.884.645.884.404 0 .636-.385.636-.9 0-.475-.228-.884-.64-.884-.405 0-.64.385-.64.9Zm4.73-.035c0 .868-.526 1.394-1.3 1.394-.786 0-1.246-.593-1.246-1.347 0-.794.507-1.387 1.289-1.387.813 0 1.257.609 1.257 1.34Zm-1.913.035c0 .518.243.884.644.884.405 0 .636-.385.636-.9 0-.475-.227-.884-.64-.884-.405 0-.64.385-.64.9Zm2.306-1.332h.6v2.145h1.054v.503h-1.654v-2.648Zm2.007 0h.594v1.17h.011c.06-.102.122-.196.181-.29l.601-.88h.735l-.876 1.127.923 1.52h-.7l-.648-1.142-.227.279v.864h-.594v-2.648Zm3.013 0v2.648h-.6v-2.648h.6Zm1.03.502h-.711v-.502h2.035v.502h-.723v2.146h-.6l-.001-2.146Zm2.294.916v.396h-1.03V12.1h1.03ZM2.558 18.045v-2.649h.7l.55.971c.156.279.313.61.431.908h.012A9.827 9.827 0 0 1 4.2 16.17v-.774h.55v2.649h-.629l-.565-1.022a9.834 9.834 0 0 1-.46-.935l-.012.004c.016.35.024.723.024 1.155v.798h-.55Zm2.71-2.649h1.62v.492h-1.02v.605h.951v.487h-.95v1.064h-.602v-2.648Zm2.582.504h-.711v-.504h2.035v.503H8.45v2.146h-.6v-2.146Z"/>
  </g>
  <defs>
    <clipPath id="a">
      <path fill="#fff" d="M0 0h25v25H0z"/>
    </clipPath>
  </defs>
</svg>
