<svg xmlns="http://www.w3.org/2000/svg" width="25" height="25" fill="none" viewBox="0 0 25 25">
  <g clip-path="url(#a)">
    <path fill="#D9E0EB" d="M94.216-60.748h-385.695V96.389H94.216V-60.748Z"/>
    <path fill="#D9E0EB" d="M25 0H0v25h25V0Z"/>
    <path fill="#B2A8EB" fill-rule="evenodd" d="m13.919 15.325-1.443 1.667-1.474-1.7c-.096.224-.182.402-.25.585-.226.613-.513.817-1.234.822-1.306.007-2.612.015-3.918-.004-.375-.006-.482.107-.466.44.026.547-.005 1.097.012 1.644.008.283-.09.409-.412.4a29.024 29.024 0 0 0-1.633 0c-.328.01-.443-.102-.44-.408.011-1.442.005-2.884.005-4.326-.001-2.705-.002-5.41-.001-8.116 0-.5.008-.508.544-.508h18.578c.521 0 .552.026.552.514.002 4.124.002 8.25 0 12.374 0 .45-.017.464-.514.465-.52.002-1.041-.008-1.56.003-.293.007-.414-.093-.407-.37.013-.582-.008-1.164.008-1.744.008-.279-.101-.368-.398-.365-1.294.01-2.588.005-3.883.003-.965-.002-1.17-.139-1.484-.967-.043-.112-.099-.221-.182-.409Zm-1.46-8.968c-2.636 0-5.272-.003-7.908.001-.87.001-1.35.43-1.35 1.205-.004 2.537-.004 5.074 0 7.61.001.712.47 1.173 1.23 1.178 1.729.008 3.458-.008 5.186-.004.413.001.642-.172.775-.526.318-.843.654-1.68.99-2.518.165-.413.58-.655 1.08-.651.49.004.891.24 1.053.638.337.837.67 1.676.997 2.516.164.42.303.534.796.537 1.633.01 3.265.01 4.897.013 1.076 0 1.498-.387 1.498-1.372V7.743c0-.994-.418-1.386-1.482-1.386h-7.763Zm-.527 6.825.563.656.515-.615c-.36-.273-.685-.286-1.078-.041Z" clip-rule="evenodd"/>
    <path fill="#B2A8EB" fill-rule="evenodd" d="M8.416 9.762c1.083-.001 1.94.777 1.95 1.774.012.995-.87 1.819-1.949 1.819-1.087 0-1.954-.81-1.945-1.818.009-1.001.856-1.775 1.944-1.775Zm8.069.004c1.08-.005 1.924.755 1.929 1.739.005 1.011-.885 1.828-1.983 1.821-1.071-.006-1.884-.776-1.88-1.781.002-1 .846-1.776 1.934-1.78Z" clip-rule="evenodd"/>
  </g>
  <defs>
    <clipPath id="a">
      <path fill="#fff" d="M0 0h25v25H0z"/>
    </clipPath>
  </defs>
</svg>
