<svg xmlns="http://www.w3.org/2000/svg" width="25" height="25" fill="none" viewBox="0 0 25 25">
  <g clip-path="url(#a)">
    <path fill="#DFF603" d="M30.893-81.287h-71.785v152.5h71.785v-152.5Z"/>
    <path fill="#D9E0EB" d="M30.893-2.596H-3.274V29.31h34.167V-2.596Z"/>
    <path fill="#B2A8EB" d="M6.118 4.64a6.7 6.7 0 0 1 1.016-.07c.5 0 .85.075 1.09.265.2.16.31.395.31.706 0 .43-.305.725-.595.83v.015c.235.095.365.32.45.63.105.38.21.821.275.951h-.78c-.055-.095-.135-.37-.235-.785-.09-.42-.235-.536-.545-.54h-.23v1.325h-.756V4.64Zm.755 1.45h.3c.38 0 .606-.19.606-.484 0-.31-.21-.466-.56-.47-.186 0-.291.014-.346.024v.93Zm2.77.896c.025.315.335.465.69.465.261 0 .471-.035.676-.1l.1.515c-.25.1-.555.15-.885.15-.83 0-1.306-.48-1.306-1.245 0-.62.385-1.306 1.236-1.306.79 0 1.09.615 1.09 1.22 0 .13-.015.246-.025.3H9.643Zm.896-.52c0-.186-.08-.496-.43-.496-.32 0-.451.29-.47.495h.9Zm2.55 1.501-.045-.246h-.015c-.16.196-.41.3-.7.3-.496 0-.791-.36-.791-.75 0-.635.57-.94 1.436-.935V6.3c0-.13-.07-.316-.446-.316-.25 0-.515.085-.675.186l-.14-.49c.17-.096.505-.216.95-.216.816 0 1.076.48 1.076 1.056v.85c0 .235.01.46.035.595h-.685Zm-.09-1.156c-.4-.005-.71.09-.71.385 0 .195.13.29.3.29.19 0 .345-.125.395-.28a.545.545 0 0 0 .015-.13v-.265Zm3.175 1.095c-.135.06-.39.11-.68.11-.79 0-1.296-.48-1.296-1.25 0-.716.49-1.301 1.4-1.301.2 0 .42.035.58.095l-.12.566a1.039 1.039 0 0 0-.424-.076c-.4 0-.66.286-.655.686 0 .45.3.685.67.685.18 0 .32-.03.435-.075l.09.56Zm1.349-3.086v.7h.546v.56h-.546v.886c0 .295.07.43.3.43.095 0 .17-.01.225-.02l.005.575c-.1.04-.28.065-.495.065-.245 0-.45-.084-.57-.21-.14-.145-.21-.38-.21-.725v-1h-.325v-.56h.325V4.99l.745-.17ZM6.6 11.236h-.905v-.64h2.591v.64h-.92v2.731h-.765v-2.731Zm2.005-.822h.76v1.396h.01a.908.908 0 0 1 .3-.25.854.854 0 0 1 .396-.096c.485 0 .856.335.856 1.071v1.43h-.76V12.62c0-.32-.11-.54-.396-.54a.404.404 0 0 0-.405.435v1.45h-.76v-3.55Zm2.93 1.911c0-.36-.01-.595-.02-.805h.656l.025.45h.02c.125-.355.425-.505.66-.505.07 0 .105 0 .16.01v.715a1.09 1.09 0 0 0-.205-.02c-.28 0-.47.15-.52.385a.904.904 0 0 0-.015.17v1.241h-.76v-1.64Zm2.445.661c.026.315.336.465.691.465.26 0 .47-.035.675-.1l.1.515c-.25.1-.555.15-.885.15-.83 0-1.306-.48-1.306-1.245 0-.62.386-1.306 1.236-1.306.79 0 1.09.615 1.09 1.22 0 .13-.015.246-.025.3h-1.575Zm.896-.52c0-.186-.08-.496-.43-.496-.32 0-.45.29-.47.495h.9Zm1.744.52c.025.315.335.465.69.465.261 0 .471-.035.676-.1l.1.515c-.25.1-.555.15-.885.15-.83 0-1.306-.48-1.306-1.245 0-.62.385-1.306 1.235-1.306.79 0 1.091.615 1.091 1.22 0 .13-.015.246-.025.3H16.62Zm.896-.52c0-.186-.08-.496-.43-.496-.32 0-.451.29-.47.495h.9ZM6.08 19.102l-.24.866h-.79l1.03-3.372h1.001l1.046 3.372h-.82l-.26-.866H6.08Zm.856-.57-.21-.716c-.06-.2-.12-.45-.17-.65h-.01c-.05.2-.1.455-.155.65l-.2.715h.745Zm1.639-1.892c.246-.04.61-.07 1.016-.07.5 0 .85.075 1.09.265.2.16.31.395.31.706 0 .43-.304.725-.595.83v.015c.236.095.365.32.45.63.105.38.21.821.276.951h-.78c-.056-.095-.136-.37-.236-.785-.09-.42-.235-.536-.545-.54h-.23v1.325h-.756V16.64Zm.756 1.451h.3c.38 0 .605-.19.605-.485 0-.31-.21-.465-.56-.47-.186 0-.29.015-.346.025v.93Zm2.209 1.875v-3.372h.891l.7 1.236c.2.355.4.775.55 1.155h.016c-.05-.445-.065-.9-.065-1.406v-.985h.7v3.371h-.8l-.72-1.3c-.2-.36-.42-.796-.586-1.19l-.015.004c.02.445.03.92.03 1.47v1.016h-.7Zm3.45-3.372h2.061v.625h-1.295v.77h1.21v.62h-1.21v1.356h-.766v-3.371Zm3.286.64h-.906v-.64h2.591v.64h-.92v2.731h-.765v-2.73Z"/>
  </g>
  <defs>
    <clipPath id="a">
      <path fill="#fff" d="M0 0h25v25H0z"/>
    </clipPath>
  </defs>
</svg>
