<svg xmlns="http://www.w3.org/2000/svg" width="25" height="25" fill="none" viewBox="0 0 25 25">
  <g clip-path="url(#a)">
    <path fill="#D9E0EB" d="M31.109-9.229h-385.695V147.91H31.109V-9.229Z"/>
    <path fill="#B2A8EB" fill-rule="evenodd" d="M7.284 7.485c-.042-.196-.084-.375-.119-.556-.145-.76-.23-1.525-.147-2.3.04-.368.107-.732.262-1.071a2.3 2.3 0 0 1 .232-.41c.384-.518.917-.68 1.538-.618.567.057 1.08.275 1.574.544a8.508 8.508 0 0 1 1.607 1.161c.088.08.178.158.278.246.055-.048.104-.088.15-.132a8.337 8.337 0 0 1 1.916-1.396c.383-.198.779-.36 1.208-.422.416-.06.823-.047 1.2.176.256.15.447.36.593.613.23.398.339.834.389 1.286.1.911.001 1.81-.2 2.7-.014.062-.025.124-.04.196.173.057.332.11.49.164.724.244 1.418.55 2.046.99.403.282.762.61 1.01 1.046.31.545.3 1.085-.02 1.622-.313.529-.775.901-1.284 1.224-.638.405-1.336.674-2.045.918l-.146.05c.002.04 0 .077.007.112.108.51.206 1.022.236 1.544.041.72.018 1.434-.244 2.12a2.117 2.117 0 0 1-.44.735 1.54 1.54 0 0 1-1.088.482c-.489.02-.946-.112-1.387-.307-.712-.315-1.337-.763-1.921-1.273l-.413-.364c-.111.098-.217.188-.32.282-.643.577-1.343 1.066-2.147 1.394-.339.138-.69.23-1.056.26-.257.02-.51-.002-.754-.087-.444-.154-.733-.47-.934-.881-.174-.357-.255-.738-.298-1.128-.098-.892.02-1.766.218-2.633.011-.053.025-.106.037-.159.002-.01-.003-.02-.007-.05l-.404-.135a8.638 8.638 0 0 1-1.842-.856 4.26 4.26 0 0 1-1.124-1.004 1.98 1.98 0 0 1-.332-.667c-.137-.469-.037-.903.218-1.307.263-.416.625-.734 1.029-1.007.439-.297.91-.532 1.402-.722.319-.123.646-.224.968-.336.031-.011.06-.025.104-.044Zm5.205 5.932c.483-.016.971-.037 1.46-.045.149-.002.235-.058.314-.181a28.429 28.429 0 0 0 1.45-2.526.321.321 0 0 0 0-.33 31.204 31.204 0 0 0-1.407-2.439c-.1-.156-.195-.28-.405-.246-.056.01-.118-.016-.177-.017-.499-.01-.999-.025-1.498-.022-.417.002-.835.027-1.253.043-.072.002-.133.013-.178.087-.133.216-.28.425-.414.642a25.897 25.897 0 0 0-1.1 1.977c-.046.094-.055.17-.007.272.279.59.605 1.154.938 1.713.174.294.37.575.55.866a.31.31 0 0 0 .29.164c.476.006.954.027 1.437.042Zm-5.015-.591c.033-.095.058-.16.08-.226.216-.662.462-1.311.758-1.94a.31.31 0 0 0 .004-.29 16.872 16.872 0 0 1-.76-1.958c-.017-.055-.04-.11-.068-.18-.26.083-.51.156-.753.245-.615.224-1.205.497-1.724.904a2.635 2.635 0 0 0-.549.553c-.23.328-.274.667-.058 1.02.037.06.074.12.116.177.209.277.471.496.752.693.434.303.91.53 1.4.726.255.103.52.18.802.275Zm.558.926c-.016.035-.03.057-.036.083-.19.822-.32 1.651-.228 2.499.034.309.106.608.243.89.186.383.491.547.91.52a2.885 2.885 0 0 0 1-.27c.735-.333 1.37-.81 1.959-1.355.039-.036.073-.078.113-.12-.136-.151-.274-.29-.395-.44-.36-.45-.714-.902-1.067-1.356a.293.293 0 0 0-.213-.124c-.613-.08-1.225-.164-1.837-.25-.149-.02-.297-.05-.45-.077Zm8.99-.037c-.067.01-.11.015-.152.024-.707.151-1.42.261-2.14.328a.31.31 0 0 0-.252.144c-.363.543-.777 1.046-1.196 1.544-.069.082-.145.157-.23.247.191.17.369.337.555.495.454.383.943.714 1.478.974.327.158.67.257 1.031.28.314.02.578-.09.759-.356a1.8 1.8 0 0 0 .174-.33c.161-.397.221-.815.23-1.242a8.207 8.207 0 0 0-.185-1.811c-.02-.095-.045-.188-.072-.297Zm-.046-6.408c.021-.075.044-.136.054-.199.061-.352.129-.705.175-1.06a5.15 5.15 0 0 0-.017-1.543c-.054-.322-.145-.635-.338-.908-.164-.233-.394-.332-.67-.34a1.397 1.397 0 0 0-.21.016c-.456.058-.866.244-1.259.468a8 8 0 0 0-1.504 1.136l-.16.151c.019.025.027.039.038.051.498.554.969 1.129 1.392 1.742.058.084.128.12.23.13.728.078 1.454.175 2.168.347.026.006.053.005.101.009Zm-8.94-.008c.035-.005.057-.007.078-.011a16.41 16.41 0 0 1 2.072-.324c.191-.018.3-.097.407-.243.244-.333.5-.656.76-.977.196-.244.405-.477.615-.722-.63-.578-1.294-1.108-2.078-1.468a2.81 2.81 0 0 0-1-.275c-.41-.026-.685.126-.871.493-.125.246-.19.508-.227.779-.125.908.012 1.796.214 2.68.004.019.016.037.03.068Zm9.49.958c-.02.037-.03.051-.035.066-.22.671-.467 1.332-.771 1.97a.423.423 0 0 0 .004.399 17.5 17.5 0 0 1 .773 1.934c.016.05.04.097.062.149.682-.21 1.329-.46 1.927-.822a4.04 4.04 0 0 0 .788-.602c.154-.155.292-.321.383-.522.114-.25.12-.495-.033-.73a3.418 3.418 0 0 0-.237-.33 2.94 2.94 0 0 0-.63-.537c-.606-.406-1.27-.687-1.962-.903-.086-.027-.175-.047-.269-.072Zm-.724 4.697a13.786 13.786 0 0 0-.596-1.556l-1.054 1.831c.234.02 1.454-.182 1.65-.275Zm-8.576.026c.198.098 1.418.293 1.635.27l-1.052-1.818c-.24.51-.402 1.028-.583 1.548Zm4.276 2.476c.265-.23.998-1.14 1.048-1.3h-.146l-1.788.003c-.043 0-.087.01-.173.022l1.06 1.275Zm1.053-8.61c-.331-.453-.67-.859-1.044-1.262-.397.388-.718.819-1.072 1.261h2.116Zm2.643 2.743c.238-.514.402-1.017.573-1.514-.225-.112-1.46-.312-1.611-.27l1.038 1.784Zm-7.396-.008 1.015-1.718a.337.337 0 0 0 .023-.06c.002-.005-.001-.011-.004-.016-.002-.004-.007-.007-.018-.016-.522.067-1.048.145-1.577.276.154.532.338 1.027.561 1.534Z" clip-rule="evenodd"/>
    <path fill="#B2A8EB" fill-rule="evenodd" d="M12.519 8.893c.889.004 1.595.728 1.581 1.639a1.603 1.603 0 0 1-1.614 1.562c-.879 0-1.59-.724-1.586-1.603a1.582 1.582 0 0 1 1.619-1.598Z" clip-rule="evenodd"/>
    <path fill="#B2A8EB" d="M6.179 22.461h-.576l-.346-.572a1.95 1.95 0 0 0-.074-.117.598.598 0 0 0-.072-.087.282.282 0 0 0-.076-.056.19.19 0 0 0-.086-.02h-.135v.852h-.502v-2.225h.795c.54 0 .81.202.81.605a.624.624 0 0 1-.136.393.653.653 0 0 1-.158.137.833.833 0 0 1-.205.09v.006c.033.01.065.027.096.05a.759.759 0 0 1 .09.082 1.777 1.777 0 0 1 .155.205l.42.657Zm-1.365-1.85v.62h.217a.36.36 0 0 0 .259-.094.31.31 0 0 0 .1-.234c0-.194-.117-.292-.35-.292h-.226Zm2.952 1.196H6.73c.016.23.162.346.436.346a.85.85 0 0 0 .46-.124v.353c-.146.08-.337.118-.572.118-.257 0-.455-.07-.597-.213-.142-.143-.213-.34-.213-.595 0-.264.077-.473.23-.627a.767.767 0 0 1 .565-.231c.231 0 .41.069.537.206.127.138.19.324.19.56v.207Zm-.455-.301c0-.228-.092-.342-.275-.342a.263.263 0 0 0-.205.098.445.445 0 0 0-.104.244h.584Zm2.069.954h-.464v-.227h-.007a.518.518 0 0 1-.473.266.496.496 0 0 1-.364-.13.471.471 0 0 1-.132-.35c0-.308.182-.486.547-.534l.432-.057c0-.174-.095-.26-.283-.26a.965.965 0 0 0-.54.169v-.37a1.22 1.22 0 0 1 .28-.093c.119-.027.227-.04.323-.04.454 0 .68.226.68.678v.949Zm-.461-.645v-.107l-.289.037c-.159.021-.239.093-.239.216 0 .056.02.102.058.137a.222.222 0 0 0 .158.054.29.29 0 0 0 .225-.096.341.341 0 0 0 .087-.24Zm2.053.589c-.111.064-.271.096-.48.096a.81.81 0 0 1-.593-.222.766.766 0 0 1-.226-.572c0-.27.08-.483.243-.639.162-.155.378-.233.649-.233.187 0 .322.025.407.074v.416a.558.558 0 0 0-.343-.115.453.453 0 0 0-.335.124.461.461 0 0 0-.123.34c0 .141.039.251.118.332.078.08.186.12.324.12a.649.649 0 0 0 .358-.115v.394Zm1.281.04a.73.73 0 0 1-.327.057c-.346 0-.518-.18-.518-.539v-.727h-.258v-.361h.258v-.343l.488-.14v.483h.357v.36h-.357v.643c0 .166.066.249.198.249a.33.33 0 0 0 .16-.045v.363Zm2.487-1.8h-.785v.546h.722v.407h-.722v.864h-.5v-2.225h1.286v.408Zm.567-.022a.285.285 0 0 1-.203-.074.24.24 0 0 1-.08-.18.23.23 0 0 1 .08-.181.296.296 0 0 1 .203-.07c.083 0 .152.023.204.07a.232.232 0 0 1 .078.18.238.238 0 0 1-.078.183.293.293 0 0 1-.204.072Zm.242 1.84h-.49v-1.59h.49v1.59Zm.909-.185h-.006v.184h-.49V20.11h.49v1.003h.006a.58.58 0 0 1 .517-.278c.204 0 .362.07.473.212.11.14.166.332.166.576 0 .265-.065.478-.194.638a.632.632 0 0 1-.518.24.5.5 0 0 1-.444-.223Zm-.014-.67v.162c0 .103.03.188.088.255a.289.289 0 0 0 .227.1.302.302 0 0 0 .26-.129.626.626 0 0 0 .092-.367.498.498 0 0 0-.084-.308.286.286 0 0 0-.242-.11.313.313 0 0 0-.244.11.417.417 0 0 0-.097.287Zm2.916.2h-1.037c.017.23.162.346.436.346a.85.85 0 0 0 .461-.124v.353c-.147.08-.337.118-.572.118-.257 0-.456-.07-.598-.213-.142-.143-.213-.34-.213-.595 0-.264.077-.473.23-.627a.765.765 0 0 1 .565-.231c.231 0 .41.069.538.206.126.138.19.324.19.56v.207Zm-.455-.301c0-.228-.093-.342-.276-.342a.262.262 0 0 0-.204.098.442.442 0 0 0-.105.244h.585Zm1.782-.19a.42.42 0 0 0-.206-.049.296.296 0 0 0-.25.117.512.512 0 0 0-.09.32v.758h-.49v-1.588h.49v.294h.007c.077-.215.217-.322.419-.322.052 0 .092.006.12.018v.452Z"/>
  </g>
  <defs>
    <clipPath id="a">
      <path fill="#fff" d="M0 0h25v25H0z"/>
    </clipPath>
  </defs>
</svg>
