<svg xmlns="http://www.w3.org/2000/svg" width="25" height="25" fill="none" viewBox="0 0 25 25">
  <g clip-path="url(#a)">
    <path fill="#D9E0EB" d="M201.008-100.209h-385.696V56.928h385.696v-157.137Z"/>
    <path fill="#B2A8EB" d="M12.57 15.961v1.33c0 .28-.01.53-.026.753.271-.369.669-.556 1.19-.556.505 0 .9.175 1.177.52.281.346.42.831.42 1.455 0 .627-.143 1.116-.424 1.469-.28.349-.676.523-1.173.523a1.7 1.7 0 0 1-.686-.136h-.004a1.366 1.366 0 0 1-.51-.42h-.01l-.122.488h-.453v-5.426h.62Zm-10.989.324.802 3.14c.097.384.168.734.22 1.054.062-.375.142-.744.252-1.103l.91-3.091h.659l.957 3.117c.097.323.18.686.252 1.083.048-.304.12-.653.226-1.067l.802-3.133h.673l-1.361 5.083-.004.02h-.617l-1.026-3.402a9.25 9.25 0 0 1-.161-.566c-.03-.117-.055-.208-.068-.275l-.003-.013c-.052.27-.12.559-.218.876l-.992 3.38h-.618L.908 16.284h.673Zm14.927 0 1.238 1.979 1.252-1.979h.685L18.102 18.7l1.679 2.65.023.038h-.725l-1.346-2.202-1.367 2.202h-.68l1.695-2.665-1.582-2.438h.709Zm5.365 0c.624 0 1.086.12 1.388.362.304.243.456.608.456 1.09 0 .666-.343 1.125-1.006 1.368l1.38 2.283h-.753l-1.222-2.102H21.1v2.102h-.636v-5.103h1.409Zm-.773 2.447h.78c.41 0 .708-.08.895-.238.188-.162.281-.401.281-.725 0-.33-.093-.56-.285-.702-.19-.142-.5-.216-.934-.216H21.1v1.881Zm-10.5-.772c.281.316.42.734.42 1.248v.388H8.418c.014.427.124.75.324.97.21.226.504.339.886.339.404 0 .802-.084 1.2-.256l.032-.013v.564l-.012.006c-.204.09-.399.152-.582.19-.185.04-.402.059-.66.059-.563 0-1.013-.174-1.342-.52-.33-.347-.492-.825-.492-1.436 0-.615.152-1.107.456-1.471.304-.362.718-.547 1.229-.547.481 0 .862.159 1.145.479Zm-1.863.34c-.168.187-.271.45-.306.782h1.927c-.007-.346-.084-.608-.236-.789-.155-.188-.379-.282-.673-.282-.298 0-.534.095-.712.288Zm4.088.048c-.168.214-.255.588-.255 1.115 0 .531.09.906.261 1.129.172.223.447.332.835.332.345 0 .598-.122.766-.371.168-.252.255-.618.255-1.097 0-.488-.087-.85-.255-1.087-.168-.235-.426-.352-.782-.352-.386.001-.66.11-.825.33Z"/>
    <path fill="#B2A8EB" d="M12.57 15.961v1.33c0 .28-.01.53-.026.753.271-.369.669-.556 1.19-.556.505 0 .9.175 1.177.52.281.346.42.831.42 1.455 0 .627-.143 1.116-.424 1.469-.28.349-.676.523-1.173.523-.25 0-.479-.045-.686-.136h-.004a1.366 1.366 0 0 1-.51-.42h-.01l-.122.488h-.453v-5.426h.62Zm-10.989.324.802 3.14c.097.384.168.734.22 1.054.062-.375.142-.744.252-1.103l.91-3.091h.659l.957 3.117c.097.323.18.686.252 1.083.048-.304.12-.653.226-1.067l.802-3.133h.673l-1.361 5.083-.004.02h-.617l-1.026-3.402a9.25 9.25 0 0 1-.161-.566c-.03-.117-.055-.208-.068-.275l-.003-.013c-.052.27-.12.559-.218.876l-.992 3.38h-.618L.908 16.284h.673Zm14.927 0 1.238 1.979 1.252-1.979h.685L18.102 18.7l1.679 2.65.023.038h-.725l-1.346-2.202-1.367 2.202h-.68l1.694-2.665-1.581-2.438h.709Zm5.365 0c.624 0 1.086.12 1.388.362.304.243.456.608.456 1.09 0 .666-.343 1.125-1.006 1.368l1.38 2.283h-.753l-1.222-2.102H21.1v2.102h-.636v-5.103h1.409Zm-.773 2.447h.78c.41 0 .708-.08.895-.238.188-.162.281-.401.281-.725 0-.33-.093-.56-.285-.702-.19-.142-.5-.217-.934-.217H21.1v1.882Zm-10.5-.772c.281.316.42.734.42 1.248v.388H8.418c.014.427.124.75.324.97.21.227.504.339.886.339.404 0 .802-.084 1.2-.256l.032-.013v.564l-.012.006c-.204.09-.399.152-.582.19-.185.04-.402.059-.66.059-.563 0-1.013-.174-1.342-.52-.33-.347-.492-.825-.492-1.436 0-.615.152-1.107.456-1.472.304-.362.718-.546 1.229-.546.481 0 .862.159 1.145.479Zm-1.863.34c-.168.188-.271.45-.306.782h1.927c-.007-.346-.084-.607-.236-.788-.155-.188-.379-.282-.673-.282-.298 0-.534.094-.712.287Zm4.088.048c-.168.214-.255.588-.255 1.115 0 .531.09.906.261 1.129.172.223.447.332.835.332.345 0 .598-.122.766-.371.168-.252.255-.618.255-1.097 0-.488-.087-.85-.255-1.087-.168-.235-.426-.352-.782-.352-.386.001-.66.11-.825.33Zm-2.97-4.617c-.166-.395-2.082-5.002-2.082-5.002s-.448-1.063 1.16-1.818A357.395 357.395 0 0 0 12.5 5.205v7.22s-1.16 1.149-1.617 1.61c-.417.418-.862.092-1.028-.304Zm5.29 0c.166-.395 2.082-5.002 2.082-5.002s.448-1.063-1.16-1.818A340.857 340.857 0 0 1 12.5 5.205v7.22s1.16 1.149 1.617 1.61c.417.418.861.092 1.028-.304Z"/>
    <path fill="#B2A8EB" d="M12.5 5.204 9.176 3.591s-.708-.312-.53.686L9.1 6.832l3.4-1.628Zm0 0 3.324-1.613s.708-.312.53.686l-.453 2.555L12.5 5.204Z"/>
  </g>
  <defs>
    <clipPath id="a">
      <path fill="#fff" d="M0 0h25v25H0z"/>
    </clipPath>
  </defs>
</svg>
