<svg width="25" height="26" viewBox="0 0 25 26" fill="none" xmlns="http://www.w3.org/2000/svg">
<circle cx="12.5" cy="12.873" r="12.5" fill="#696969"/>
<path d="M7.46327 17.2168V8.2018L7.74827 6.7168H10.0883V17.2168H7.46327ZM5.36327 10.6018V8.0818C5.65327 8.1118 5.93827 8.0568 6.21827 7.9168C6.50827 7.7768 6.78327 7.5918 7.04327 7.3618C7.31327 7.1318 7.54827 6.9068 7.74827 6.6868L9.51827 8.3518C9.12827 8.8018 8.71327 9.2118 8.27327 9.5818C7.84327 9.9418 7.38827 10.2168 6.90827 10.4068C6.42827 10.5968 5.91327 10.6618 5.36327 10.6018ZM11.4336 17.2168L14.5236 12.9568L16.6536 9.7168H19.8336L16.7286 14.0218L14.6436 17.2168H11.4336ZM16.8186 17.2168L14.7636 14.0218L11.6286 9.7168H14.8086L16.9386 12.9568L20.0136 17.2168H16.8186Z" fill="#C3FF00"/>
</svg>
