<svg width="26" height="26" viewBox="0 0 26 26" fill="none" xmlns="http://www.w3.org/2000/svg">
<circle cx="13.2451" cy="12.873" r="12.5" fill="#696969"/>
<path d="M5.00594 17.2168V15.2668C5.00594 15.0068 5.11594 14.6968 5.33594 14.3368C5.55594 13.9668 5.85594 13.5918 6.23594 13.2118C6.62594 12.8218 7.06094 12.4718 7.54094 12.1618L8.59094 11.4868C8.77094 11.3668 8.96094 11.2318 9.16094 11.0818C9.36094 10.9218 9.53094 10.7468 9.67094 10.5568C9.81094 10.3668 9.88094 10.1768 9.88094 9.9868C9.88094 9.8068 9.83594 9.6468 9.74594 9.5068C9.66594 9.3668 9.53594 9.2618 9.35594 9.1918C9.18594 9.1118 8.95594 9.0718 8.66594 9.0718C8.46594 9.0718 8.28594 9.1168 8.12594 9.2068C7.96594 9.2968 7.83094 9.4168 7.72094 9.5668C7.62094 9.7168 7.54594 9.8818 7.49594 10.0618L4.63094 9.5968C4.72094 9.0568 4.93594 8.5518 5.27594 8.0818C5.62594 7.6118 6.08594 7.2368 6.65594 6.9568C7.23594 6.6668 7.90594 6.5218 8.66594 6.5218C9.51594 6.5218 10.2409 6.6668 10.8409 6.9568C11.4509 7.2468 11.9159 7.6518 12.2359 8.1718C12.5659 8.6818 12.7309 9.2768 12.7309 9.9568C12.7309 10.7068 12.5209 11.3418 12.1009 11.8618C11.6909 12.3718 11.1609 12.8368 10.5109 13.2568L9.65594 13.8118C9.46594 13.9318 9.27094 14.0718 9.07094 14.2318C8.87094 14.3918 8.68094 14.5768 8.50094 14.7868H12.8359V17.2168H5.00594ZM13.4311 17.2168L16.5211 12.9568L18.6511 9.7168H21.8311L18.7261 14.0218L16.6411 17.2168H13.4311ZM18.8161 17.2168L16.7611 14.0218L13.6261 9.7168H16.8061L18.9361 12.9568L22.0111 17.2168H18.8161Z" fill="#C3FF00"/>
</svg>
