<svg width="25" height="25" viewBox="0 0 25 25" fill="none" xmlns="http://www.w3.org/2000/svg">
<rect x="25" width="25" height="25" transform="rotate(90 25 0)" fill="#696969"/>
<path d="M9.701 22.1222V9.21595H14.3472V22.1222H9.701ZM12.0241 7.97695C11.3358 7.97695 10.7335 7.71883 10.2172 7.20258C9.701 6.68633 9.44287 6.08404 9.44287 5.3957C9.44287 4.69016 9.701 4.08787 10.2172 3.58883C10.7335 3.07258 11.3358 2.81445 12.0241 2.81445C12.7297 2.81445 13.332 3.07258 13.831 3.58883C14.3472 4.08787 14.6054 4.69016 14.6054 5.3957C14.6054 6.08404 14.3472 6.68633 13.831 7.20258C13.332 7.71883 12.7297 7.97695 12.0241 7.97695Z" fill="#C3FF00"/>
</svg>
