<svg width="25" height="25" viewBox="0 0 25 25" fill="none" xmlns="http://www.w3.org/2000/svg">
<rect y="25" width="25" height="25" rx="12.5" transform="rotate(-90 0 25)" fill="#696969"/>
<path d="M6.455 18L10.145 7.5L13.145 7.5L9.14 18L6.455 18ZM6.14 18L2.105 7.5L5.105 7.5L8.825 18L6.14 18ZM14.15 18L14.15 7.5L18.5 7.5C19.29 7.5 19.99 7.655 20.6 7.965C21.21 8.265 21.685 8.685 22.025 9.225C22.375 9.755 22.55 10.37 22.55 11.07C22.55 11.77 22.375 12.395 22.025 12.945C21.685 13.485 21.21 13.91 20.6 14.22C19.99 14.52 19.29 14.67 18.5 14.67L16.925 14.67L16.925 18L14.15 18ZM19.79 18L17.45 13.875L19.535 12.315L22.97 18L19.79 18ZM16.925 12.12L18.35 12.12C18.6 12.12 18.82 12.075 19.01 11.985C19.2 11.895 19.35 11.77 19.46 11.61C19.57 11.45 19.625 11.27 19.625 11.07C19.625 10.77 19.505 10.525 19.265 10.335C19.035 10.135 18.73 10.035 18.35 10.035L16.925 10.035L16.925 12.12Z" fill="#C3FF00"/>
</svg>
