<svg xmlns="http://www.w3.org/2000/svg" width="25" height="25" fill="none" viewBox="0 0 25 25">
  <g clip-path="url(#a)">
    <path fill="#D9E0EB" d="M166.002-60.748h-385.695V96.389h385.695V-60.748Z"/>
    <path fill="#B2A8EB" d="M12.524 19.093h.619c.44 0 .855-.206 1.123-.557l3.928-5.168 3.929 5.168c.266.35.681.557 1.122.557h.619l-5.011-6.592 4.786-6.298h-.618a1.41 1.41 0 0 0-1.123.557l-3.704 4.873-3.705-4.873a1.41 1.41 0 0 0-1.123-.557h-.62l4.788 6.298-5.01 6.592Z"/>
    <path fill="#B2A8EB" d="M12.683 13.025v-1.574a5.777 5.777 0 0 0-6.734-5.696c-2.812.453-4.813 2.996-4.813 5.844V13.1c0 3.439 2.507 6.185 5.704 6.223a5.77 5.77 0 0 0 5.62-4.198h-.54a.846.846 0 0 0-.762.479 4.726 4.726 0 0 1-5.368 2.541c-2.148-.494-3.604-2.506-3.604-4.71v-.41h10.497ZM2.186 11.823c0-2.471 1.472-4.491 3.634-4.974a4.73 4.73 0 0 1 5.813 4.602v.524H2.186v-.152Z"/>
  </g>
  <defs>
    <clipPath id="a">
      <path fill="#fff" d="M0 0h25v25H0z"/>
    </clipPath>
  </defs>
</svg>
