<svg xmlns="http://www.w3.org/2000/svg" width="24" height="25" fill="none" viewBox="0 0 24 25">
  <g clip-path="url(#a)">
    <path fill="#D9E0EB" d="M128.455-60.748H-257.24V96.389h385.695V-60.748Z"/>
    <path fill="#D9E0EB" d="M25.667 0h-25v25h25V0Z"/>
    <path fill="#B2A8EB" d="M17.706 10.36c-1.105-4.876-3.408-6.173-3.995-7.09a10.476 10.476 0 0 1-.643-1.258c-.03.433-.088.706-.456 1.034-.739.66-3.878 3.217-4.142 8.757-.246 5.164 3.796 8.348 4.33 8.678.411.202.912.004 1.155-.182 1.95-1.337 4.612-4.903 3.754-9.94"/>
    <path fill="#B2A8EB" d="M13.236 17.73c-.102 1.278-.175 2.021-.433 2.752 0 0 .17 1.216.289 2.506h.421c.1-.908.254-1.81.46-2.699-.546-.269-.716-1.438-.737-2.559Z"/>
    <path fill="#B2A8EB" d="M13.972 20.29c-.551-.255-.71-1.449-.736-2.56a52.51 52.51 0 0 0 .12-5.511c-.03-.964.013-8.932-.238-10.098.172.395.37.778.592 1.147.588.918 2.892 2.215 3.996 7.09.86 5.028-1.787 8.585-3.734 9.931Z"/>
  </g>
  <defs>
    <clipPath id="a">
      <path fill="#fff" d="M.667 0h25v25h-25z"/>
    </clipPath>
  </defs>
</svg>
