<svg xmlns="http://www.w3.org/2000/svg" width="26" height="25" fill="none" viewBox="0 0 26 25">
  <g clip-path="url(#a)">
    <path fill="#D9E0EB" d="M65.428-4.324H-36.001v34.762H65.428V-4.324Z"/>
    <path fill="#B2A8EB" d="M12.697 19.751a.45.45 0 0 1-.223-.06l-.715-.422c-.107-.06-.054-.082-.02-.093a1.46 1.46 0 0 0 .323-.147c.017-.01.037-.007.053.003l.55.326c.019.01.047.01.065 0l2.14-1.235a.068.068 0 0 0 .032-.058v-2.468a.069.069 0 0 0-.034-.058l-2.137-1.234a.065.065 0 0 0-.066 0l-2.138 1.234a.068.068 0 0 0-.034.058v2.468c0 .023.013.046.033.057l.586.338c.319.16.513-.028.513-.216v-2.436c0-.035.027-.062.062-.062h.271c.034 0 .062.027.062.062v2.436c0 .425-.231.668-.634.668-.123 0-.22 0-.493-.134l-.56-.323a.452.452 0 0 1-.225-.39v-2.468c0-.16.085-.31.224-.39l2.141-1.235a.468.468 0 0 1 .45 0l2.139 1.235a.45.45 0 0 1 .224.39v2.468c0 .16-.086.31-.224.39l-2.139 1.235a.448.448 0 0 1-.225.06"/>
    <path fill="#B2A8EB" d="M13.358 18.051c-.935 0-1.132-.43-1.132-.79 0-.034.028-.062.062-.062h.276c.03 0 .057.023.062.052.04.282.165.424.731.424.451 0 .643-.102.643-.34 0-.139-.055-.24-.755-.309-.586-.058-.948-.186-.948-.655 0-.431.365-.689.974-.689.685 0 1.024.238 1.067.749a.063.063 0 0 1-.062.067H14a.061.061 0 0 1-.06-.048c-.067-.296-.23-.39-.668-.39-.492 0-.55.17-.55.3 0 .155.067.2.732.288.657.088.97.21.97.673 0 .466-.39.733-1.067.733m2.605-2.618h.071c.059 0 .07-.041.07-.065 0-.064-.043-.064-.067-.064h-.074v.13Zm-.088-.202h.16c.054 0 .16 0 .16.122 0 .085-.054.103-.087.114.064.004.068.045.077.104.004.037.011.1.024.123h-.098a7.863 7.863 0 0 1-.017-.146c-.008-.026-.016-.039-.049-.039h-.08v.185h-.09v-.463Zm-.191.23c0 .192.155.347.345.347a.346.346 0 1 0-.345-.347Zm.757 0a.413.413 0 1 1-.822-.001.413.413 0 0 1 .822.002Zm-10.365-5.37a.274.274 0 0 0-.137-.238L3.67 8.55a.267.267 0 0 0-.125-.036h-.023a.273.273 0 0 0-.126.036L1.13 9.856a.276.276 0 0 0-.137.238l.005 3.514c0 .049.025.095.067.118a.13.13 0 0 0 .136 0l1.348-.771a.277.277 0 0 0 .137-.238v-1.642c0-.098.052-.188.138-.237l.573-.33a.27.27 0 0 1 .274 0l.573.33a.273.273 0 0 1 .137.237v1.642c0 .097.052.187.137.237l1.348.772a.137.137 0 0 0 .205-.118l.005-3.514Zm10.7 1.83a.069.069 0 0 1-.035.059l-.778.448a.068.068 0 0 1-.069 0l-.779-.448a.067.067 0 0 1-.034-.06v-.899a.07.07 0 0 1 .034-.06l.778-.45a.07.07 0 0 1 .069 0l.78.45a.07.07 0 0 1 .034.06v.9Zm.21-6.66a.137.137 0 0 0-.203.12v3.479a.095.095 0 0 1-.049.083.095.095 0 0 1-.095 0l-.568-.327a.275.275 0 0 0-.274 0l-2.269 1.309a.273.273 0 0 0-.137.236v2.62c0 .097.052.187.137.236l2.269 1.31a.275.275 0 0 0 .274 0l2.268-1.31a.276.276 0 0 0 .138-.237V6.256c0-.1-.054-.19-.141-.24l-1.35-.753ZM24.54 11a.274.274 0 0 0 .136-.236v-.635a.274.274 0 0 0-.136-.237l-2.254-1.308a.274.274 0 0 0-.275 0l-2.268 1.309a.274.274 0 0 0-.137.237v2.618c0 .099.053.19.138.239l2.254 1.284a.273.273 0 0 0 .269.001l1.363-.757a.137.137 0 0 0 .07-.119.137.137 0 0 0-.07-.12l-2.282-1.309a.137.137 0 0 1-.069-.118v-.821c0-.05.026-.095.07-.119l.709-.41a.136.136 0 0 1 .137 0l.71.41c.042.024.068.07.068.118v.646a.137.137 0 0 0 .205.118l1.362-.79Z"/>
    <path fill="#B2A8EB" d="M22.115 10.878a.053.053 0 0 1 .052 0l.435.251c.017.01.026.027.026.046v.502a.05.05 0 0 1-.026.046l-.435.25a.052.052 0 0 1-.052 0l-.436-.25a.052.052 0 0 1-.026-.046v-.502c0-.02.01-.037.026-.046l.436-.25ZM9.596 8.597 7.341 9.899a.273.273 0 0 0-.137.236v2.605c0 .097.053.188.137.236l2.256 1.303a.272.272 0 0 0 .272 0l2.256-1.303a.274.274 0 0 0 .136-.236v-2.605a.272.272 0 0 0-.137-.236L9.87 8.597a.276.276 0 0 0-.273 0"/>
    <path fill="#B2A8EB" d="M7.261 12.906a.264.264 0 0 0 .08.07l1.935 1.118.322.185a.277.277 0 0 0 .21.026l2.38-4.355a.265.265 0 0 0-.064-.05l-1.477-.854-.781-.45a.294.294 0 0 0-.07-.028L7.26 12.906Z"/>
    <path fill="#B2A8EB" d="M9.706 8.561a.282.282 0 0 0-.11.035L7.347 9.894l2.426 4.418a.27.27 0 0 0 .096-.034l2.256-1.303a.272.272 0 0 0 .131-.185L9.784 8.566a.26.26 0 0 0-.077-.004"/>
  </g>
  <defs>
    <clipPath id="a">
      <path fill="#fff" d="M.333 0h25v25h-25z"/>
    </clipPath>
  </defs>
</svg>
