<svg xmlns="http://www.w3.org/2000/svg" width="25" height="25" fill="none" viewBox="0 0 25 25">
  <g clip-path="url(#a)">
    <path fill="#D9E0EB" d="M372.341-60.748H-13.354V96.389h385.695V-60.748Z"/>
    <path fill="#B2A8EB" d="M15.67 15.258c-.419.227-.401.958.051 1.132.488.174 1.01.192 1.498.313.122.035.244.088.296.21.122.243.017.609-.261.696-.4.122-.87.122-1.254-.035-.261-.105-.383-.366-.4-.61-.105 0-.227 0-.331.018.017.244.07.505.26.662.314.244.715.278 1.098.296.348 0 .731-.035 1.027-.227.349-.244.384-.887-.035-1.097-.383-.19-.818-.209-1.219-.295-.191-.053-.417-.07-.591-.192-.227-.209-.123-.644.173-.714.384-.104.801-.122 1.167.018.227.069.314.313.348.505h.331c0-.21-.07-.436-.243-.575-.279-.226-.662-.244-.993-.244-.296-.018-.627-.018-.923.14Zm-12.416.088c-.174-.157-.436-.21-.662-.21-.506 0-1.01.018-1.515.018v2.682h.26c0-.383-.016-.767 0-1.132h1.29c.313-.018.679-.157.8-.47.105-.296.07-.68-.173-.888Zm-.14.835c-.087.227-.348.297-.574.314-.401.017-.801 0-1.184 0V15.38h1.149c.192 0 .418.034.54.191.121.157.139.4.07.61Zm18.493-1.027v2.682h2.316v-.227c-.661-.017-1.323 0-2.002-.017v-2.455c-.104.017-.209.017-.314.017Zm-13.373.35v.574h-.348v.174h.348v1.219c0 .122.035.244.14.314.191.086.4.07.609.052v-.174c-.14.017-.279.035-.4-.035-.088-.052-.07-.157-.088-.244v-1.132h.47c0-.07 0-.122-.017-.191h-.47v-.575c-.053.018-.157.018-.244.018Zm10.517-.211c.384-.191.819-.226 1.237-.191.4.035.8.174 1.062.488.33.348.4.905.261 1.358-.07.26-.244.453-.435.627.156.104.313.209.47.331-.07.07-.14.122-.21.191-.156-.104-.313-.226-.47-.313-.121 0-.243.07-.383.105-.348.069-.73.069-1.08 0-.382-.07-.765-.297-.974-.645-.209-.33-.226-.766-.14-1.132a1.31 1.31 0 0 1 .662-.818Zm.523.07c-.366.087-.714.349-.836.714-.122.4-.087.87.209 1.201.26.297.644.418 1.027.418.418.018.87-.104 1.15-.435.382-.488.33-1.271-.175-1.654-.383-.331-.905-.348-1.375-.244Zm-14.035.817c-.314-.173-.697-.19-1.045-.139-.297.053-.575.21-.697.488-.122.279-.122.61.018.888.156.296.487.453.8.47.401.035.854-.018 1.15-.331.314-.4.244-1.114-.226-1.375Zm-.053 1.307a.844.844 0 0 1-.592.226c-.243.018-.505-.035-.679-.191-.226-.21-.26-.558-.174-.854.087-.26.331-.418.592-.453.244-.035.522-.017.749.122.174.105.26.296.278.488.035.244 0 .488-.174.662Zm.836-1.306c.174-.121.4-.139.61-.156.296-.017.627-.017.87.156.14.088.192.261.21.419h-.297c-.017-.14-.07-.261-.209-.331-.243-.105-.505-.105-.766-.053-.156.018-.348.105-.348.296-.017.122.104.227.227.244.33.087.679.07 1.01.14.156.035.313.104.4.226.122.192.052.488-.156.592-.244.14-.54.157-.819.157-.261-.017-.558-.017-.784-.174-.14-.105-.191-.261-.209-.436h.297c0 .227.191.383.4.4.296.036.627.07.906-.069.191-.104.174-.418-.035-.487-.418-.122-.871-.087-1.271-.226-.28-.088-.28-.54-.036-.698Zm3.797-.121c.278-.07.592-.07.87.017.157.052.279.174.4.279 0-.105.018-.192.018-.279h.261c.018.54 0 1.08.018 1.62.017.226-.035.47-.21.627-.226.208-.556.244-.853.244-.26 0-.54-.018-.783-.14-.157-.087-.244-.26-.279-.435h.261c.053.122.105.261.227.314.191.087.4.087.61.087.226-.018.487-.052.626-.245.14-.191.105-.435.105-.662-.279.297-.714.349-1.098.297-.243-.035-.487-.122-.661-.314-.192-.244-.21-.575-.14-.854.07-.277.349-.486.628-.556Zm.226.174c-.192.035-.4.122-.505.296-.123.21-.123.488-.053.697.087.227.349.348.575.383.296.035.644 0 .853-.227.244-.296.21-.8-.104-1.027-.21-.156-.505-.156-.766-.122Zm2.159-.139c.21-.088.418-.07.627-.07v.226c-.226 0-.47-.035-.662.105-.174.122-.244.365-.244.574v.906h-.26a29.47 29.47 0 0 1 0-1.76h.278v.297c.07-.105.14-.226.261-.279Zm.731.365c.175-.296.54-.418.871-.436.348-.017.731.035.975.297.192.173.244.435.261.696h-1.967c.017.174.07.365.208.487.261.227.644.262.958.174a.643.643 0 0 0 .453-.417h.296c-.087.295-.349.505-.644.574-.401.087-.871.07-1.22-.174-.347-.243-.417-.818-.19-1.201Zm.505-.139c-.191.105-.296.313-.33.522h1.671c-.017-.122-.052-.26-.14-.348-.295-.348-.835-.383-1.2-.174Zm-1.274-9.41a2.35 2.35 0 0 1 1.34.07c.297.105.558.314.75.557.104.122.104.279.104.419 0 .348-.07.678-.156 1.027a7.017 7.017 0 0 1-.75 1.741l-.104.157c0-.018-.017-.053-.017-.053.035-.104.104-.209.122-.313.087-.313.017-.644-.017-.958-.035-.296.07-.592.07-.888.017-.14-.053-.278-.105-.418a2.705 2.705 0 0 0-.94-1.132c-.07-.086-.193-.139-.297-.209Z"/>
    <path fill="#B2A8EB" d="M10.947 6.948c.54-.07 1.114.087 1.55.418.348.278.644.662.783 1.097-.244 0-.54-.018-.749.156-.191.157-.209.419-.174.645.105.54.418.992.645 1.463.052.122.139.208.226.313-.104.052-.192.087-.244.192-.087.156-.052.33-.087.505-.052.47-.104.94-.174 1.41-.035.226-.14.47-.348.575-.21.104-.47.173-.714.14-.227-.036-.384-.262-.436-.471-.052-.174-.052-.366-.07-.54-.016-.436-.016-.87-.016-1.306a.45.45 0 0 0-.227-.436.56.56 0 0 0-.244-.052c.07-.313.262-.592.33-.923.088-.4.036-.8-.051-1.201a.55.55 0 0 0-.383-.418c-.314-.07-.61.035-.888.174.034-.436.156-.888.418-1.254.208-.261.522-.435.853-.487Z"/>
    <path fill="#B2A8EB" d="M8.63 6.982c.489-.087.976 0 1.446.14a1.972 1.972 0 0 0-.453.783 3.566 3.566 0 0 0-.157 1.219 3.67 3.67 0 0 1-.035.87c-.052.366.105.75.384 1.011-.192.226-.384.435-.575.662-.087.104-.192.209-.33.174-.157-.052-.262-.192-.35-.331-.243-.383-.382-.819-.521-1.254a9.287 9.287 0 0 1-.349-1.567c-.035-.4-.017-.837.192-1.185.157-.278.436-.452.749-.522Zm4.058 1.793c.174-.122.418-.104.61-.087-.018.278-.105.557-.07.853.035.35.122.732-.035 1.08-.227-.453-.522-.87-.61-1.376-.017-.156-.017-.348.105-.47Zm.07.07c-.052.052 0 .121.052.14.122.069.296-.036.296-.175a.415.415 0 0 0-.348.035Z"/>
    <path fill="#B2A8EB" d="M9.676 8.968c.226-.14.487-.26.749-.244.139 0 .26.105.296.244.121.487.156 1.027-.07 1.497a3.045 3.045 0 0 0-.209.558c-.4 0-.731-.33-.8-.697-.053-.209.017-.418.017-.626.034-.262.017-.488.017-.732Zm.627-.104c-.035.017-.07.035-.07.07.017.138.209.226.33.138.053-.034.105-.104.053-.156a.337.337 0 0 0-.313-.052Zm2.907 2.455c.053-.035.14-.087.21-.035.278.156.609.07.922.035-.191.173-.435.26-.696.295-.175.018-.349.035-.505-.034 0-.088 0-.192.07-.261Zm-2.872.346c.156-.087.226-.279.383-.383.156-.017.296.227.156.349-.243.33-.748.4-1.097.209.174-.07.383-.07.558-.175Z"/>
    <path fill="#B2A8EB" d="M11.8 6.564c.47-.122.975-.174 1.463-.087.435.07.853.296 1.184.61.14.139.278.295.33.487.105.348.053.697 0 1.045a7.607 7.607 0 0 1-.887 2.333c.191 0 .365-.052.557-.07.174-.017.383.105.418.279.052.192-.07.383-.21.505-.382.331-.905.436-1.375.418-.035.505-.035 1.01-.244 1.48-.104.21-.243.383-.435.505s-.4.174-.61.21c-.226.034-.487.017-.697-.123-.191-.122-.296-.313-.365-.522-.157-.436-.14-.888-.174-1.34a1.394 1.394 0 0 1-1.028.016.723.723 0 0 1-.313-.19.738.738 0 0 1-.627.156c-.278-.07-.47-.314-.627-.54-.261-.418-.417-.888-.557-1.359-.157-.54-.296-1.08-.365-1.654-.035-.505 0-1.027.278-1.463.209-.349.592-.592.993-.68.574-.121 1.167 0 1.706.157.174-.086.349-.174.54-.208.366-.052.714-.017 1.045.035Zm-.018.21c-.034.016-.086-.018-.121-.018-.47-.105-.993-.053-1.393.208-.488-.174-1.01-.278-1.533-.226-.383.035-.783.227-.992.54-.279.418-.314.94-.279 1.41.087.645.244 1.272.435 1.881.14.383.28.766.506 1.097.121.157.278.331.487.348.192.018.348-.087.47-.226.21-.244.4-.47.61-.696.14.069.296.104.435.121-.087.105-.157.227-.279.262-.174.07-.383.052-.54.173-.087.07-.104.21-.017.279.139.14.365.174.557.192.279.017.558-.07.766-.262 0 .436 0 .889.052 1.324a.98.98 0 0 0 .331.68c.174.156.453.19.68.156.226-.053.47-.122.644-.261.191-.174.278-.418.313-.662.07-.435.122-.87.174-1.324.488.087 1.045-.017 1.41-.365.07-.07.157-.21.07-.296-.07-.087-.208-.07-.313-.052-.244.052-.523.104-.766-.018.435-.697.784-1.445.975-2.246.07-.296.122-.61.122-.923-.018-.174-.035-.366-.14-.505a2.034 2.034 0 0 0-1.062-.714 3.873 3.873 0 0 0-1.601.122Z"/>
  </g>
  <defs>
    <clipPath id="a">
      <path fill="#fff" d="M0 0h25v25H0z"/>
    </clipPath>
  </defs>
</svg>
