<svg xmlns="http://www.w3.org/2000/svg" width="26" height="25" fill="none" viewBox="0 0 26 25">
  <g clip-path="url(#a)">
    <path fill="#D9E0EB" d="M65.512-81.287H-6.273v152.5h71.785v-152.5Z"/>
    <path fill="#B2A8EB" d="M3.004 3.716a7.58 7.58 0 0 1 1.146-.08c.565 0 .96.085 1.231.3.226.18.35.446.35.796 0 .485-.344.819-.672.937v.017c.266.108.413.362.509.712.118.429.237.926.31 1.072h-.88c-.063-.107-.153-.417-.266-.886-.102-.474-.265-.604-.615-.61h-.26V7.47h-.853V3.716Zm.853 1.637h.339c.429 0 .683-.214.683-.547 0-.35-.237-.526-.632-.531-.21 0-.328.017-.39.028v1.05Zm4.761.509h-1.4v.903h1.564v.706H6.354V3.666h2.349v.706H7.218v.79h1.4v.7Zm.78.723a2.2 2.2 0 0 0 .954.236c.395 0 .604-.163.604-.411 0-.237-.18-.373-.638-.537-.632-.22-1.044-.57-1.044-1.123 0-.65.542-1.146 1.44-1.146.429 0 .744.09.97.191l-.192.695a1.812 1.812 0 0 0-.796-.181c-.372 0-.553.17-.553.367 0 .243.215.35.706.536.671.248.988.599.988 1.135 0 .638-.491 1.18-1.536 1.18-.434 0-.864-.113-1.078-.231l.175-.711Zm3.756-2.197h-1.022v-.722h2.925v.722h-1.04v3.083h-.863V4.388Zm2.429 3.083V5.343h-.361V4.71h.361v-.107c0-.333.102-.7.35-.926.215-.203.514-.277.762-.277.192 0 .34.023.457.057l-.034.66a.93.93 0 0 0-.276-.04c-.283 0-.401.221-.401.492v.141h.553v.633h-.547V7.47h-.864Zm4.433-.885c0 .361.011.654.022.886h-.745l-.04-.39h-.016a.984.984 0 0 1-.864.452c-.559 0-.97-.35-.97-1.203v-1.62h.863v1.485c0 .4.13.643.43.643a.461.461 0 0 0 .456-.485V4.711h.864v1.875Zm.69-3.123h.858v4.009h-.858v-4.01ZM3.89 13.272l-.27.976h-.892l1.163-3.805h1.13l1.18 3.805h-.927l-.293-.976H3.89Zm.966-.644-.237-.808c-.067-.225-.135-.508-.192-.733h-.011c-.057.225-.113.513-.175.733l-.226.808h.841Zm1.854-2.133a7.062 7.062 0 0 1 1.163-.079c.53 0 .909.101 1.163.305.242.192.406.508.406.88 0 .373-.124.69-.35.904-.294.276-.728.4-1.236.4a2.2 2.2 0 0 1-.294-.016v1.36h-.853v-3.754Zm.852 1.728c.074.017.164.022.288.022.458 0 .74-.23.74-.62 0-.35-.243-.56-.672-.56-.175 0-.294.018-.356.035v1.123Zm3.293-1.78v3.805h-.863v-3.805h.863Zm.695 3.055c.158.096.486.209.74.209.26 0 .367-.09.367-.232 0-.141-.085-.209-.407-.316-.57-.192-.79-.503-.784-.83 0-.514.44-.903 1.123-.903.322 0 .61.073.78.158l-.153.593a1.36 1.36 0 0 0-.599-.158c-.209 0-.328.084-.328.225 0 .13.108.198.447.317.525.18.745.446.75.852 0 .514-.406.892-1.196.892-.362 0-.683-.079-.892-.191l.152-.616Z"/>
  </g>
  <defs>
    <clipPath id="a">
      <path fill="#fff" d="M.333 0h25v25h-25z"/>
    </clipPath>
  </defs>
</svg>
