<svg xmlns="http://www.w3.org/2000/svg" width="25" height="25" fill="none" viewBox="0 0 25 25">
  <g clip-path="url(#a)">
    <path fill="#D9E0EB" d="M247.026-60.748h-385.695V96.389h385.695V-60.748Z"/>
    <path fill="#B2A8EB" d="m22.811 11.213-8.356-8.356a1.812 1.812 0 0 0-1.288-.535c-.466 0-.933.178-1.288.535l-1.652 1.652 2.045 2.045a1.767 1.767 0 0 1 2.147.27c.583.583.667 1.468.268 2.145l2.01 2.01a1.767 1.767 0 0 1 2.148 2.774 1.768 1.768 0 0 1-2.773-2.147l-2.01-2.01a1.704 1.704 0 0 1-.452.186v5.437a1.765 1.765 0 0 1-.443 3.478 1.77 1.77 0 0 1-1.77-1.77c0-.825.565-1.511 1.328-1.708V9.782a1.757 1.757 0 0 1-.809-.455 1.764 1.764 0 0 1-.268-2.145L9.6 5.135l-6.078 6.079a1.82 1.82 0 0 0 0 2.575l8.356 8.356a1.81 1.81 0 0 0 1.288.535 1.81 1.81 0 0 0 1.288-.535l8.356-8.356a1.82 1.82 0 0 0 0-2.576Z"/>
  </g>
  <defs>
    <clipPath id="a">
      <path fill="#fff" d="M.667 0h25v25h-25z"/>
    </clipPath>
  </defs>
</svg>
