<svg xmlns="http://www.w3.org/2000/svg" width="25" height="25" fill="none" viewBox="0 0 25 25">
  <g clip-path="url(#a)">
    <path fill="#D9E0EB" d="M372.341-9.229H-13.354V147.91h385.695V-9.229Z"/>
    <path fill="#B2A8EB" d="M5.832 12.08H4.01a.085.085 0 0 0-.085.084v.89c0 .048.039.086.085.086h.712v1.108s-.16.054-.601.054c-.521 0-1.249-.19-1.249-1.79s.758-1.81 1.469-1.81c.616 0 .88.108 1.05.16.053.016.102-.037.102-.084l.203-.86a.079.079 0 0 0-.032-.067c-.07-.05-.487-.283-1.543-.283-1.217 0-2.466.518-2.466 3.007 0 2.488 1.43 2.858 2.634 2.858.997 0 1.602-.425 1.602-.425.025-.013.028-.049.028-.065v-2.779a.085.085 0 0 0-.086-.085Zm9.394-2.213a.085.085 0 0 0-.085-.086h-1.026a.085.085 0 0 0-.085.086v1.984h-1.6V9.867a.085.085 0 0 0-.084-.086H11.32a.085.085 0 0 0-.085.086v5.37c0 .047.038.086.085.086h1.026a.085.085 0 0 0 .085-.086v-2.296h1.6l-.004 2.296c0 .047.039.086.086.086h1.028a.085.085 0 0 0 .085-.086v-5.37Zm-8.119 1.372c.366 0 .662-.3.662-.669a.665.665 0 0 0-.662-.668c-.365 0-.661.3-.661.668 0 .37.296.669.661.669Zm.589 2.864v-2.478a.085.085 0 0 0-.085-.086H6.588c-.047 0-.09.048-.09.096v3.55c0 .106.066.136.15.136h.922c.101 0 .126-.05.126-.137v-1.08Zm11.43-2.556h-1.018a.086.086 0 0 0-.085.087v2.632s-.258.19-.626.19c-.367 0-.465-.167-.465-.527v-2.296a.086.086 0 0 0-.084-.086h-1.034a.086.086 0 0 0-.085.086v2.47c0 1.068.596 1.33 1.414 1.33.672 0 1.214-.371 1.214-.371s.026.195.037.218a.089.089 0 0 0 .075.046l.657-.003a.085.085 0 0 0 .085-.085v-3.605a.085.085 0 0 0-.085-.086Zm2.784-.12c-.578 0-.972.258-.972.258V9.867a.085.085 0 0 0-.084-.086h-1.03a.085.085 0 0 0-.084.086v5.37c0 .047.038.086.085.086h.714c.032 0 .056-.017.074-.046.018-.029.043-.247.043-.247s.422.398 1.218.398c.935 0 1.472-.474 1.472-2.13 0-1.655-.857-1.871-1.436-1.871Zm-.402 3.026c-.353-.01-.593-.171-.593-.171v-1.701s.236-.145.526-.17c.368-.034.72.077.72.952 0 .923-.159 1.105-.653 1.09ZM10.645 11.54h-.77l-.001-1.018c0-.038-.02-.057-.064-.057H8.76c-.04 0-.062.018-.062.057v1.051s-.526.127-.562.137a.084.084 0 0 0-.061.082v.661c0 .047.038.085.085.085h.537v1.59c0 1.18.828 1.295 1.387 1.295.255 0 .56-.082.611-.1.03-.011.048-.043.048-.077v-.727a.087.087 0 0 0-.084-.086c-.045 0-.16.019-.278.019-.378 0-.506-.176-.506-.404v-1.51h.77a.085.085 0 0 0 .085-.085v-.827a.085.085 0 0 0-.085-.087Z"/>
  </g>
  <defs>
    <clipPath id="a">
      <path fill="#fff" d="M0 0h25v25H0z"/>
    </clipPath>
  </defs>
</svg>
