<svg xmlns="http://www.w3.org/2000/svg" width="26" height="25" fill="none" viewBox="0 0 26 25">
  <g clip-path="url(#a)">
    <path fill="#D9E0EB" d="M330.8-60.748H-54.895V96.389H330.8V-60.748Z"/>
    <path fill="#B2A8EB" d="M13.034 15.662h-.647l.002 4.827h2.623v-.597h-1.975l-.003-4.23Zm4.474 3.98c-.163.17-.434.34-.802.34-.493 0-.692-.245-.692-.562 0-.479.332-.707 1.039-.707.134 0 .348.015.457.036v.893h-.002Zm-.671-2.925c-.523 0-1.004.184-1.378.496l.229.398c.264-.155.587-.309 1.054-.309.531 0 .766.273.766.73v.235a2.874 2.874 0 0 0-.448-.035c-1.135 0-1.71.397-1.71 1.23 0 .744.456 1.12 1.148 1.12.467 0 .915-.215 1.07-.562l.119.472h.456V18.02c-.003-.781-.34-1.304-1.306-1.304Zm3.396 3.285c-.244 0-.458-.03-.619-.104v-2.23a1.28 1.28 0 0 1 .841-.319c.627 0 .868.442.868 1.159 0 1.016-.39 1.494-1.09 1.494Zm.273-3.285c-.58 0-.892.394-.892.394v-.623l-.002-.826h-.633l.004 4.708c.317.133.751.205 1.223.205 1.21 0 1.79-.773 1.79-2.106-.002-1.054-.54-1.752-1.49-1.752Zm-14.522-.531c.573 0 .945.19 1.185.383l.279-.484c-.377-.333-.888-.51-1.434-.51-1.378 0-2.344.84-2.344 2.536 0 1.776 1.043 2.468 2.233 2.468a3.8 3.8 0 0 0 1.438-.28l-.015-1.897v-.597H5.56v.597h1.128l.016 1.44c-.149.074-.404.134-.752.134-.957 0-1.598-.603-1.598-1.871-.002-1.293.66-1.919 1.631-1.919Zm4.56-.524h-.633l.003.811v2.801c0 .781.34 1.304 1.305 1.304.133 0 .264-.012.388-.036v-.567c-.092.015-.19.021-.294.021-.53 0-.766-.273-.766-.73v-1.931h1.06v-.529h-1.06l-.003-1.144ZM8.303 20.49h.632v-3.683h-.632v3.683Zm0-4.191h.632v-.633h-.632v.633ZM17.829 9.7l-.561-1.727-1.111-3.422c-.06-.175-.308-.175-.364 0L14.68 7.973h-3.693L9.875 4.551c-.057-.175-.305-.175-.364 0L8.4 7.973 7.84 9.7a.382.382 0 0 0 .139.427l4.856 3.528 4.857-3.528a.383.383 0 0 0 .138-.427Z"/>
  </g>
  <defs>
    <clipPath id="a">
      <path fill="#fff" d="M.333 0h25v25h-25z"/>
    </clipPath>
  </defs>
</svg>
