<svg xmlns="http://www.w3.org/2000/svg" width="25" height="25" fill="none" viewBox="0 0 25 25">
  <g clip-path="url(#a)">
    <path fill="#D9E0EB" d="M65.179-6.465H-6.607v152.5H65.18v-152.5Z"/>
    <path fill="#B2A8EB" d="M22.634 5.31 13.05 22.446a.52.52 0 0 1-.908.005L2.369 5.311a.521.521 0 0 1 .544-.771l9.595 1.715c.06.01.124.01.185 0l9.395-1.713a.52.52 0 0 1 .547.767Z"/>
    <path fill="#fff" stroke="#B2A8EB" stroke-miterlimit="10" stroke-width="4" d="M17.078 2.29 9.985 3.68a.26.26 0 0 0-.21.24l-.437 7.37a.26.26 0 0 0 .32.269l1.974-.455a.26.26 0 0 1 .314.305l-.587 2.873a.26.26 0 0 0 .331.302l1.22-.371a.261.261 0 0 1 .33.302l-.932 4.512c-.058.283.317.437.474.195l.104-.162 5.78-11.534a.26.26 0 0 0-.282-.372l-2.033.392a.26.26 0 0 1-.3-.328l1.328-4.6a.261.261 0 0 0-.302-.328Z"/>
    <path fill="#D9E0EB" d="M17.078 2.29 9.985 3.68a.26.26 0 0 0-.21.24l-.437 7.37a.26.26 0 0 0 .32.269l1.974-.455a.26.26 0 0 1 .314.305l-.587 2.873a.26.26 0 0 0 .331.302l1.22-.371a.261.261 0 0 1 .33.302l-.932 4.512c-.058.283.317.437.474.195l.104-.162 5.78-11.534a.26.26 0 0 0-.282-.372l-2.033.392a.26.26 0 0 1-.3-.328l1.328-4.6a.261.261 0 0 0-.302-.328Z"/>
  </g>
  <defs>
    <clipPath id="a">
      <path fill="#fff" d="M0 0h25v25H0z"/>
    </clipPath>
  </defs>
</svg>
