<svg xmlns="http://www.w3.org/2000/svg" width="26" height="25" fill="none" viewBox="0 0 26 25">
  <g clip-path="url(#a)">
    <path fill="#D9E0EB" d="M160.984-101.996h-385.695V55.141h385.695v-157.137Z"/>
    <path fill="#B2A8EB" d="m21.373 17.964-8.18 4.628v-3.605l5.097-2.804 3.083 1.78Zm.56-.507V7.78l-2.991 1.73v6.22l2.992 1.727Zm-17.64.507 8.181 4.628v-3.605l-5.1-2.804-3.08 1.78Zm-.56-.507V7.78l2.992 1.73v6.22l-2.992 1.727Zm.351-10.304 8.39-4.747V5.89L7.098 8.847l-.043.024-2.97-1.718Zm17.499 0-8.39-4.747V5.89l5.376 2.955.043.024 2.97-1.715Zm-9.109 11.013L7.444 15.4V9.922l5.03 2.903v5.341Zm.719 0 5.03-2.764v-5.48l-5.03 2.903v5.341ZM7.784 9.29l5.05-2.775 5.049 2.775-5.05 2.914L7.784 9.29Z"/>
  </g>
  <defs>
    <clipPath id="a">
      <path fill="#fff" d="M.333 0h25v25h-25z"/>
    </clipPath>
  </defs>
</svg>
