<svg xmlns="http://www.w3.org/2000/svg" width="25" height="25" fill="none" viewBox="0 0 25 25">
  <g clip-path="url(#a)">
    <path fill="#D9E0EB" d="M333.772-9.229H-51.923V147.91h385.695V-9.229Z"/>
    <path fill="#B2A8EB" d="M9.24 22.284c1.8 0 3.26-1.461 3.26-3.261v-3.261H9.24a3.262 3.262 0 0 0-3.262 3.26c0 1.8 1.461 3.262 3.261 3.262ZM5.978 12.5c0-1.8 1.461-3.262 3.261-3.262H12.5v6.523H9.24a3.262 3.262 0 0 1-3.262-3.262Z"/>
    <path fill="#B2A8EB" d="M5.978 5.978c0-1.8 1.461-3.261 3.261-3.261H12.5v6.522H9.24a3.262 3.262 0 0 1-3.262-3.261ZM12.5 2.717h3.261a3.262 3.262 0 0 1 0 6.522H12.5V2.717Z"/>
    <path fill="#B2A8EB" d="M19.022 12.5c0 1.8-1.46 3.26-3.26 3.26A3.262 3.262 0 0 1 12.5 12.5c0-1.8 1.461-3.262 3.261-3.262s3.261 1.461 3.261 3.261Z"/>
  </g>
  <defs>
    <clipPath id="a">
      <path fill="#fff" d="M0 0h25v25H0z"/>
    </clipPath>
  </defs>
</svg>
