<svg xmlns="http://www.w3.org/2000/svg" width="25" height="25" fill="none" viewBox="0 0 25 25">
  <g clip-path="url(#a)">
    <path fill="#D9E0EB" d="M115.212-9.229h-385.695V147.91h385.695V-9.229Z"/>
    <path fill="#B2A8EB" d="M12.171 14.65h-3.88L7.5 17.1a.182.182 0 0 1-.199.147H5.34c-.115 0-.146-.063-.115-.188l3.358-9.668c.032-.105.063-.22.104-.345a3.64 3.64 0 0 0 .063-.678c-.01-.052.032-.104.084-.114h2.701c.083 0 .125.031.135.083l3.807 10.743c.032.115 0 .167-.104.167h-2.18c-.073.01-.146-.042-.167-.115l-.855-2.483Zm-3.275-2.118h2.65c-.063-.219-.146-.48-.24-.75a29.61 29.61 0 0 1-.282-.898c-.104-.323-.198-.636-.303-.96a22.927 22.927 0 0 1-.281-.928c-.083-.292-.157-.563-.23-.813h-.02a12.91 12.91 0 0 1-.355 1.345c-.157.5-.313 1.022-.48 1.544a19.887 19.887 0 0 1-.459 1.46Zm8.907-4.453a1.296 1.296 0 0 1-.928-.365 1.355 1.355 0 0 1-.354-.96 1.23 1.23 0 0 1 .375-.928c.25-.24.584-.365.929-.365.407 0 .72.125.949.365.23.25.354.584.344.929.01.354-.114.698-.365.96-.24.25-.595.385-.95.364Zm-1.168 9.053V9.101c0-.104.042-.146.136-.146h2.065c.094 0 .136.052.136.146v8.031c0 .115-.042.167-.136.167h-2.044c-.104 0-.157-.063-.157-.167Z"/>
  </g>
  <defs>
    <clipPath id="a">
      <path fill="#fff" d="M0 0h25v25H0z"/>
    </clipPath>
  </defs>
</svg>
