<svg xmlns="http://www.w3.org/2000/svg" width="25" height="25" fill="none" viewBox="0 0 25 25">
  <g clip-path="url(#a)">
    <path fill="#D9E0EB" d="M165.031-9.229h-385.695V147.91h385.695V-9.229Z"/>
    <path fill="#B2A8EB" d="M5.638 17.135V6.39c0-.073.032-.114.105-.114.177 0 .344 0 .585-.01.25-.011.511-.011.793-.022.282-.01.585-.01.909-.02.323-.011.636-.011.95-.011.856 0 1.566.104 2.15.323.523.178 1.003.47 1.4.857.334.334.595.74.762 1.19.157.439.24.887.24 1.357 0 .899-.209 1.64-.626 2.225a3.575 3.575 0 0 1-1.681 1.273c-.71.26-1.494.355-2.35.355-.25 0-.417 0-.522-.01-.104-.01-.25-.01-.449-.01v3.351a.13.13 0 0 1-.115.146H5.764c-.084 0-.126-.041-.126-.135ZM7.915 8.29v3.51c.146.01.281.021.407.021h.553c.408 0 .815-.063 1.201-.188.334-.094.627-.292.856-.553.22-.261.324-.617.324-1.076a1.723 1.723 0 0 0-.24-.93 1.513 1.513 0 0 0-.731-.594 3.063 3.063 0 0 0-1.233-.21c-.271 0-.511 0-.71.011-.208-.01-.354 0-.427.01Zm12.133 2.871a3.696 3.696 0 0 0-1.003-.354 5.502 5.502 0 0 0-1.169-.136 2.125 2.125 0 0 0-.627.073.536.536 0 0 0-.323.209.554.554 0 0 0-.084.282c0 .094.042.187.105.27.094.116.219.21.355.283.24.126.49.24.741.345a7.567 7.567 0 0 1 1.608.762c.345.22.626.512.825.867.167.334.25.7.24 1.075.01.491-.136.982-.407 1.389-.292.418-.7.741-1.17.93-.511.219-1.138.334-1.89.334a7.2 7.2 0 0 1-1.42-.136 4.197 4.197 0 0 1-1.064-.334c-.073-.042-.126-.115-.115-.199v-1.817c0-.03.01-.073.042-.093.03-.021.062-.011.094.01.407.24.835.407 1.294.511.397.105.815.157 1.233.157.396 0 .678-.052.866-.146a.485.485 0 0 0 .282-.439c0-.146-.083-.282-.25-.418-.167-.135-.512-.292-1.024-.49a6.41 6.41 0 0 1-1.482-.752 2.714 2.714 0 0 1-.794-.887 2.25 2.25 0 0 1-.24-1.065c0-.45.125-.877.355-1.263a2.57 2.57 0 0 1 1.096-.96c.49-.252 1.107-.366 1.848-.366.428 0 .867.031 1.295.094.313.041.616.125.898.24.042.01.083.052.105.094.01.042.02.083.02.126v1.702c0 .041-.02.083-.052.104-.094.02-.147.02-.188-.002Z"/>
  </g>
  <defs>
    <clipPath id="a">
      <path fill="#fff" d="M0 0h25v25H0z"/>
    </clipPath>
  </defs>
</svg>
