<svg width="25" height="23" viewBox="0 0 25 23" fill="none" xmlns="http://www.w3.org/2000/svg">
<g clip-path="url(#clip0_298_1838)">
<path d="M28.6807 -61.9258H-357.014V95.2117H28.6807V-61.9258Z" fill="#D9E0EB"/>
<path fill-rule="evenodd" clip-rule="evenodd" d="M17.4211 8.40258C17.324 8.3458 17.2265 8.28723 17.1286 8.23116C16.8925 8.09545 16.6493 7.97579 16.4018 7.86722C16.1011 7.73543 15.7943 7.62152 15.4836 7.52224C15.2368 7.44402 14.9879 7.37331 14.7368 7.31367C14.5672 7.27367 14.3965 7.24043 14.225 7.20507C14.1165 7.18257 14.0086 7.1601 13.8993 7.14081C13.804 7.12403 13.7086 7.1101 13.6125 7.09617C13.4871 7.07795 13.3611 7.05974 13.235 7.04403C13.1643 7.03474 13.0929 7.02793 13.0211 7.02079C12.9004 7.00972 12.7793 6.99687 12.6582 6.98687C12.5404 6.97759 12.4218 6.97009 12.3033 6.96438C11.9147 6.94723 11.5254 6.9358 11.1368 6.94615C10.9546 6.95115 10.7725 6.95829 10.5907 6.96865C10.445 6.97686 10.2993 6.98936 10.1536 7.00401C10.0218 7.01758 9.89074 7.03581 9.75931 7.05331C9.61717 7.0726 9.47464 7.09046 9.3325 7.11439C9.175 7.13975 9.01679 7.17044 8.86 7.2008C8.73786 7.22401 8.61538 7.24759 8.49466 7.27688C8.28466 7.32866 8.07467 7.38329 7.86574 7.44115C7.73788 7.47686 7.61074 7.52009 7.48431 7.56331C7.33895 7.61295 7.19393 7.66294 7.05 7.71794C6.79322 7.8158 6.54147 7.92471 6.29325 8.04792C6.06111 8.16328 5.8318 8.28867 5.60966 8.42796C5.29216 8.62688 4.99072 8.85224 4.70787 9.11081C4.68429 9.13224 4.68287 9.13117 4.66501 9.17367C4.68501 9.19046 4.70251 9.1751 4.71894 9.16618C4.83965 9.10368 4.96466 9.05509 5.09644 9.02723C5.19859 9.00545 5.30251 8.98579 5.40715 8.97971C5.60823 8.96757 5.80894 8.97188 6.00966 9.00866C6.44216 9.08973 6.80502 9.31795 7.10145 9.68188C7.28752 9.91081 7.42002 10.1772 7.51252 10.4715C7.5868 10.7061 7.63179 10.949 7.65251 11.1965C7.66429 11.3337 7.66217 11.4729 7.65896 11.6112C7.64932 12.0058 7.57179 12.384 7.42001 12.739C7.21679 13.2179 6.90252 13.5711 6.47431 13.7883C6.2761 13.889 6.06751 13.9426 5.8518 13.9665C5.74715 13.9783 5.64325 13.9844 5.53825 13.9805C5.21253 13.9697 4.89717 13.9051 4.60681 13.7247C4.58609 13.7122 4.56572 13.6926 4.53679 13.7019C4.53608 13.7322 4.55678 13.7469 4.5725 13.7619C4.64393 13.8311 4.71464 13.9011 4.78821 13.9665C5.155 14.2933 5.5543 14.5605 5.97251 14.7912C6.28073 14.9615 6.59608 15.1112 6.91965 15.2383C7.14286 15.3262 7.37075 15.4044 7.59753 15.4812C7.88289 15.578 8.17325 15.654 8.46432 15.7233C8.7536 15.7915 9.04359 15.8483 9.33538 15.8962C9.44716 15.9147 9.56037 15.9262 9.67216 15.9408C9.79823 15.9576 9.92359 15.9751 10.0497 15.9912C10.11 15.9983 10.1708 16.003 10.2311 16.0076C10.3529 16.0165 10.4736 16.0265 10.5947 16.0337C10.7818 16.0444 10.969 16.0569 11.1561 16.0622C11.4018 16.0694 11.6472 16.0758 11.8925 16.0558C11.9007 16.0551 11.9097 16.0544 11.9175 16.0536C12.0857 16.0469 12.2536 16.0426 12.4218 16.0326C12.57 16.0244 12.719 16.0119 12.8675 15.999C12.9965 15.9872 13.1257 15.974 13.2547 15.9583C13.38 15.9426 13.5061 15.9236 13.6315 15.9051C13.7929 15.8808 13.9543 15.8569 14.1143 15.8269C14.2586 15.8011 14.4011 15.7651 14.5454 15.7369C14.8175 15.6844 15.0843 15.6062 15.3511 15.5283C15.5886 15.4583 15.8229 15.3755 16.0561 15.2858C16.4714 15.1265 16.8757 14.9326 17.2657 14.7019C17.3068 14.6776 17.3468 14.6519 17.3929 14.6358C17.3497 14.6776 17.3068 14.7205 17.2625 14.7612C16.9568 15.0408 16.6314 15.2894 16.2925 15.5144C15.8839 15.7854 15.459 16.0161 15.0211 16.219C14.699 16.3679 14.3711 16.4986 14.0382 16.6136C13.7486 16.7144 13.4561 16.8044 13.1597 16.8808C12.9536 16.9337 12.745 16.9808 12.5361 17.0251C12.3115 17.0737 12.085 17.1069 11.859 17.1476C11.7425 17.169 11.6239 17.1772 11.5061 17.1922C11.4432 17.2004 11.3807 17.2101 11.3182 17.2194C11.3043 17.2208 11.2904 17.2251 11.2772 17.2258C11.0647 17.2347 10.8539 17.259 10.6418 17.2712C10.2275 17.2947 9.81431 17.2926 9.40038 17.2855C9.19038 17.2815 8.98179 17.2679 8.7725 17.2508C8.6625 17.2412 8.55289 17.2351 8.44217 17.2258C8.3986 17.2222 8.355 17.2137 8.31108 17.208C8.11715 17.1847 7.9218 17.1615 7.72858 17.129C7.58144 17.1036 7.43395 17.0822 7.28717 17.0544C7.17324 17.0336 7.05933 17.0069 6.94611 16.9823C6.65611 16.9187 6.36896 16.8447 6.0836 16.7597C5.67253 16.6376 5.26787 16.4923 4.86965 16.3219C4.65322 16.229 4.4379 16.1323 4.22861 16.0187C4.04218 15.9169 3.85395 15.8176 3.6711 15.7069C3.29038 15.4776 2.9268 15.2165 2.58537 14.9151C2.31858 14.6801 2.06825 14.4247 1.84039 14.1401C1.65253 13.9051 1.48216 13.6544 1.33681 13.3815C1.11966 12.9722 0.96181 12.5355 0.893953 12.0605C0.862168 11.8365 0.839642 11.6108 0.850357 11.3844C0.858571 11.2151 0.875374 11.0465 0.903588 10.8797C0.978588 10.4226 1.13215 10.0015 1.34465 9.60689C1.5068 9.30582 1.69857 9.03044 1.9125 8.77472C2.18929 8.44365 2.49538 8.15116 2.82288 7.88723C3.20038 7.58294 3.60108 7.32582 4.01608 7.09582C4.33393 6.91975 4.66036 6.76652 4.99251 6.62938C5.28251 6.50867 5.57575 6.39866 5.87503 6.30973C6.07182 6.2508 6.27001 6.19617 6.46751 6.13796C6.68644 6.07332 6.90824 6.02722 7.13074 5.98079C7.35789 5.93294 7.58753 5.89972 7.81717 5.86186C7.93431 5.84258 8.05216 5.82544 8.1693 5.80937C8.24001 5.80009 8.31218 5.79401 8.38397 5.78723C8.59861 5.76901 8.81286 5.7515 9.0275 5.73365C9.03536 5.73329 9.04361 5.73187 9.05182 5.73151C9.46825 5.70544 9.88465 5.70582 10.3011 5.71368C10.5164 5.71832 10.7308 5.73545 10.9454 5.75152C11.0993 5.76295 11.2525 5.78794 11.4068 5.7983C11.5333 5.80759 11.6586 5.82972 11.785 5.84508C11.9161 5.86186 12.0464 5.8858 12.1779 5.91008C12.3511 5.94222 12.5254 5.97582 12.6982 6.01332C12.8611 6.04867 13.0225 6.08867 13.1833 6.13081C13.3422 6.17188 13.5004 6.21687 13.6571 6.26509C13.8082 6.31223 13.9593 6.36294 14.1089 6.4158C14.4997 6.55152 14.8829 6.71079 15.2575 6.89615C15.5768 7.054 15.8886 7.22723 16.1911 7.42223C16.495 7.61723 16.7868 7.83115 17.0661 8.06794C17.1879 8.17294 17.3079 8.28223 17.4211 8.40258ZM4.07323 11.4779C4.08073 11.5936 4.08503 11.7097 4.09682 11.8254C4.12789 12.1376 4.20501 12.4336 4.34715 12.7054C4.44179 12.8854 4.56179 13.0394 4.70787 13.1679C4.95537 13.3851 5.24073 13.474 5.54823 13.4869C5.63359 13.4901 5.71861 13.478 5.80397 13.4705C5.97718 13.4544 6.14 13.4004 6.29286 13.3083C6.59715 13.1251 6.80929 12.8429 6.94572 12.4854C7.05822 12.1876 7.10858 11.8737 7.11858 11.5508C7.12251 11.444 7.11643 11.338 7.10786 11.2312C7.08714 10.979 7.04075 10.734 6.95361 10.5011C6.86075 10.2526 6.73322 10.0304 6.54965 9.854C6.41536 9.72543 6.26753 9.62402 6.10003 9.56295C5.90896 9.49223 5.71215 9.46758 5.51323 9.4758C5.4768 9.47723 5.44182 9.48689 5.40611 9.48975C5.14647 9.51439 4.91286 9.6165 4.70608 9.79615C4.46036 10.0083 4.29966 10.2897 4.19966 10.6172C4.1143 10.8947 4.0718 11.1819 4.07323 11.4779Z" fill="#B2A8EB"/>
<path fill-rule="evenodd" clip-rule="evenodd" d="M19.5482 10.6359C19.5379 10.5988 19.5289 10.5687 19.5204 10.5391C19.4686 10.3669 19.394 10.2116 19.2743 10.088C19.154 9.96483 19.0136 9.88946 18.8572 9.85231C18.8061 9.83946 18.7532 9.83484 18.7015 9.83091C18.6518 9.82734 18.6018 9.8309 18.5515 9.82947C18.3622 9.82661 18.1861 9.88127 18.0225 9.98877C17.8825 10.082 17.7682 10.2077 17.6782 10.362C17.5657 10.5566 17.5007 10.7723 17.4611 10.9991C17.4386 11.123 17.43 11.2473 17.4236 11.3734C17.4143 11.5413 17.4229 11.7066 17.4436 11.8713C17.4665 12.0459 17.5057 12.2163 17.5689 12.3777C17.6332 12.5398 17.7157 12.688 17.8307 12.8095C17.9604 12.9459 18.1083 13.0434 18.2818 13.0941C18.4501 13.1427 18.6193 13.1502 18.7904 13.1298C18.929 13.113 19.0618 13.0755 19.1861 13.0034C19.3475 12.9102 19.4639 12.7677 19.5464 12.5873C19.6018 12.467 19.6336 12.3366 19.6529 12.2023C19.659 12.1631 19.6629 12.122 19.6536 12.0838C19.6265 12.0555 19.5947 12.062 19.565 12.062C19.4493 12.0609 19.3329 12.0616 19.2172 12.0616C19.0761 12.0616 18.9357 12.062 18.7947 12.0609C18.7157 12.0606 18.71 12.0541 18.71 11.9641C18.7083 11.7784 18.7083 11.593 18.71 11.4077C18.71 11.3191 18.7175 11.3109 18.7954 11.3095C18.875 11.3081 18.955 11.3091 19.0358 11.3091C19.48 11.3091 19.924 11.3091 20.3682 11.3091C20.4929 11.3091 20.4929 11.3095 20.4929 11.448C20.4929 12.2155 20.4929 12.9823 20.4929 13.7502C20.4929 13.7752 20.4929 13.8005 20.4915 13.8259C20.489 13.8723 20.4783 13.8834 20.4347 13.8863C20.4268 13.8866 20.4176 13.8863 20.4097 13.8863C20.2718 13.8863 20.1343 13.8863 19.9961 13.8863C19.9854 13.8863 19.974 13.8859 19.9633 13.8859C19.9383 13.8848 19.9204 13.8709 19.9136 13.8438C19.9047 13.8077 19.8965 13.7712 19.89 13.7341C19.8725 13.6327 19.8554 13.5305 19.8382 13.4291C19.8332 13.4016 19.8297 13.3741 19.8036 13.3512C19.789 13.3655 19.7733 13.3777 19.7608 13.3923C19.6983 13.463 19.6393 13.5384 19.574 13.6059C19.3793 13.8048 19.1457 13.9087 18.8914 13.963C18.7493 13.9937 18.6054 13.9888 18.4625 13.9841C18.1918 13.9745 17.9332 13.9045 17.6861 13.7795C17.325 13.5966 17.0404 13.3123 16.8333 12.9298C16.6861 12.6563 16.5929 12.3591 16.5415 12.0437C16.5129 11.8698 16.5018 11.6941 16.499 11.5184C16.4965 11.3495 16.5068 11.1798 16.5315 11.0112C16.5558 10.8405 16.5911 10.6727 16.6415 10.5095C16.76 10.1213 16.9493 9.78627 17.22 9.51448C17.3936 9.34056 17.5915 9.2102 17.8079 9.11806C18.0004 9.03592 18.1986 8.98841 18.4043 8.97341C18.4839 8.96698 18.5632 8.95588 18.644 8.95981C18.944 8.97338 19.234 9.03446 19.5076 9.18446C19.8122 9.35124 20.0547 9.59448 20.2279 9.92556C20.3193 10.0998 20.3754 10.2902 20.4072 10.4898C20.4132 10.5234 20.419 10.5573 20.4218 10.592C20.4247 10.6227 20.4115 10.6377 20.3836 10.6405C20.3697 10.642 20.3557 10.642 20.3425 10.642C20.1022 10.642 19.8618 10.642 19.6222 10.6416C19.599 10.6413 19.5775 10.6377 19.5482 10.6359Z" fill="#B2A8EB"/>
<path fill-rule="evenodd" clip-rule="evenodd" d="M21.1253 11.4765C21.1253 10.7315 21.1253 9.98646 21.1253 9.24111C21.1253 9.21003 21.1246 9.17827 21.1268 9.1472C21.1293 9.10077 21.1411 9.08859 21.1843 9.08538C21.1954 9.08395 21.2061 9.08398 21.2168 9.08398C21.4628 9.08398 21.7086 9.08398 21.9539 9.08398C21.9732 9.08434 21.9921 9.08539 22.0111 9.08861C22.0296 9.09182 22.0414 9.10613 22.0421 9.12684C22.0446 9.15791 22.0447 9.18931 22.0447 9.2211C22.0447 10.4347 22.0447 11.6479 22.0447 12.8615C22.0447 12.8961 22.0447 12.9307 22.0468 12.9654C22.0482 12.9961 22.0607 13.01 22.0886 13.0118C22.1189 13.0143 22.15 13.0143 22.18 13.0143C22.7978 13.0143 23.4153 13.0143 24.0328 13.015C24.0611 13.015 24.0882 13.015 24.1161 13.0175C24.1339 13.0186 24.1464 13.0326 24.1493 13.0533C24.1525 13.0754 24.1532 13.0968 24.1532 13.119C24.1539 13.3361 24.1539 13.5529 24.1532 13.77C24.1532 13.8683 24.1454 13.8754 24.0579 13.8772C24.0411 13.8775 24.0246 13.8776 24.0086 13.8776C23.095 13.8776 22.1821 13.8775 21.2686 13.8772C21.2353 13.8772 21.2021 13.8772 21.17 13.8736C21.1436 13.8711 21.1303 13.8554 21.1275 13.8254C21.125 13.7908 21.125 13.7558 21.125 13.7211C21.1254 12.9733 21.1253 12.225 21.1253 11.4765Z" fill="#B2A8EB"/>
<path fill-rule="evenodd" clip-rule="evenodd" d="M8.54291 11.2457C8.55898 11.2268 8.57219 11.2161 8.58005 11.2007C8.67219 11.0161 8.81611 10.9071 8.98969 10.8421C9.12147 10.7928 9.25578 10.766 9.39614 10.7657C9.54256 10.7646 9.68718 10.776 9.82861 10.8275C10.1086 10.93 10.3233 11.1264 10.4715 11.4153C10.6058 11.676 10.6701 11.9596 10.674 12.2607C10.6765 12.3703 10.6779 12.4818 10.6686 12.5903C10.6401 12.9253 10.5554 13.2371 10.3579 13.4978C10.2133 13.6886 10.0311 13.8139 9.81968 13.8839C9.69146 13.9264 9.56007 13.9467 9.42757 13.9417C9.23043 13.9339 9.03899 13.8925 8.86221 13.7839C8.75899 13.7204 8.66684 13.6428 8.59684 13.5342C8.58219 13.5121 8.57184 13.4828 8.5372 13.4828C8.53255 13.4946 8.52397 13.5082 8.5229 13.5218C8.51933 13.5536 8.52006 13.5846 8.52006 13.6164C8.51935 14.0539 8.51935 14.4904 8.52006 14.9279C8.52006 15.0618 8.51934 15.0567 8.40506 15.0557C8.33077 15.0553 8.25541 15.0557 8.18184 15.0553C8.16506 15.0553 8.1479 15.0557 8.13218 15.0532C8.11326 15.0503 8.10146 15.0371 8.09896 15.0164C8.09682 14.9885 8.09613 14.96 8.09613 14.9318C8.09613 14.6582 8.09613 14.3846 8.09613 14.111C8.09613 13.0703 8.09613 12.0289 8.09613 10.9878C8.09613 10.9532 8.09612 10.9193 8.09827 10.8846C8.10005 10.8596 8.11397 10.8446 8.13576 10.8414C8.14612 10.8396 8.15721 10.8382 8.16828 10.8382C8.26257 10.8382 8.35613 10.8382 8.4497 10.8382C8.45577 10.8382 8.46078 10.8389 8.46613 10.8393C8.50435 10.8436 8.5172 10.8553 8.51828 10.8971C8.5197 10.9603 8.51896 11.0232 8.51967 11.085C8.51967 11.1232 8.51898 11.1607 8.52255 11.1986C8.52433 11.2125 8.53398 11.225 8.54291 11.2457ZM10.2347 12.3343C10.2286 12.2735 10.225 12.2079 10.2175 12.1432C10.199 11.9704 10.16 11.8039 10.085 11.6511C10.0004 11.4793 9.88219 11.3475 9.72433 11.2628C9.59112 11.1914 9.45005 11.1725 9.30576 11.1807C9.20897 11.1857 9.11399 11.2028 9.02434 11.2482C8.79292 11.365 8.64827 11.5717 8.57077 11.8396C8.51612 12.0321 8.49467 12.2321 8.50289 12.4346C8.50467 12.4818 8.51326 12.5278 8.51719 12.575C8.53183 12.7425 8.56932 12.9021 8.6386 13.0507C8.72003 13.2257 8.83864 13.3578 8.99614 13.4425C9.18221 13.5421 9.3772 13.5586 9.57684 13.5164C9.73399 13.4828 9.86471 13.3964 9.97257 13.2621C10.0369 13.1821 10.0833 13.091 10.1215 12.9925C10.2036 12.785 10.2175 12.5625 10.2347 12.3343Z" fill="#B2A8EB"/>
<path fill-rule="evenodd" clip-rule="evenodd" d="M12.4272 12.4927C12.1254 12.4927 11.8254 12.4927 11.5244 12.4927C11.5029 12.4927 11.4808 12.4923 11.4586 12.4937C11.4058 12.4966 11.3901 12.513 11.3901 12.5752C11.3908 12.6669 11.405 12.7562 11.425 12.8448C11.5 13.1827 11.69 13.398 11.9793 13.4944C12.185 13.5623 12.3936 13.5591 12.5976 13.4748C12.7708 13.403 12.89 13.268 12.9579 13.0727C12.9683 13.0434 12.9772 13.0134 12.9861 12.9841C12.9954 12.9534 13.014 12.9391 13.0426 12.9391C13.1476 12.9391 13.2522 12.938 13.3568 12.9394C13.3936 12.9402 13.4061 12.9605 13.4001 13.0005C13.4001 13.0041 13.4001 13.0069 13.3994 13.0102C13.3072 13.4016 13.1111 13.6912 12.7722 13.8395C12.6586 13.8891 12.5415 13.923 12.4183 13.9294C12.355 13.9334 12.2922 13.9444 12.229 13.943C12.0608 13.9383 11.8933 13.9166 11.7344 13.8473C11.4808 13.7377 11.2818 13.553 11.1458 13.2823C11.0468 13.0855 10.9976 12.8709 10.9651 12.6498C10.9393 12.478 10.9372 12.3051 10.9486 12.1326C10.9568 12.0169 10.9811 11.9037 11.0115 11.7923C11.0779 11.5509 11.1868 11.3384 11.3461 11.1609C11.5247 10.9616 11.7386 10.8366 11.9836 10.7891C12.1894 10.7498 12.3951 10.7534 12.5979 10.8187C12.8272 10.8937 13.0076 11.048 13.1522 11.2577C13.2804 11.4437 13.3615 11.6548 13.409 11.8851C13.4415 12.0419 13.4575 12.2002 13.46 12.3612C13.4608 12.3834 13.4615 12.4051 13.46 12.4269C13.4561 12.4755 13.4451 12.4884 13.4047 12.4916C13.3822 12.4934 13.3604 12.4923 13.3383 12.4923C13.0336 12.4927 12.7301 12.4927 12.4272 12.4927ZM13.0001 12.0612C13.0008 12.0459 13.0022 12.0337 13.0022 12.0212C13.0029 11.9284 12.9772 11.8419 12.9486 11.7573C12.8508 11.4701 12.6679 11.2902 12.409 11.2098C12.3072 11.1784 12.2033 11.1752 12.0972 11.1873C11.9233 11.2066 11.7729 11.2837 11.6469 11.4187C11.5033 11.5734 11.4279 11.7691 11.4001 11.9905C11.3968 12.0141 11.4001 12.0391 11.4001 12.0612C11.4368 12.0894 11.4736 12.0837 11.5094 12.0837C11.7047 12.0844 11.9001 12.0841 12.0961 12.0841C12.3604 12.0841 12.6244 12.0844 12.8894 12.0837C12.924 12.083 12.9608 12.0898 13.0001 12.0612Z" fill="#B2A8EB"/>
<path fill-rule="evenodd" clip-rule="evenodd" d="M13.7957 12.3566C13.7957 11.8912 13.7957 11.4262 13.7957 10.9612C13.7957 10.8402 13.7957 10.8398 13.8997 10.8387C13.9772 10.8384 14.0547 10.8377 14.1318 10.8402C14.1854 10.8409 14.1954 10.8516 14.1961 10.9116C14.1975 11.0087 14.1961 11.1059 14.1968 11.2037C14.1968 11.2287 14.1975 11.2541 14.2007 11.2784C14.2007 11.2862 14.2082 11.2991 14.2129 11.2995C14.2225 11.3009 14.2354 11.2984 14.2418 11.2916C14.2536 11.2791 14.2632 11.2634 14.2728 11.2473C14.4146 10.9955 14.6193 10.8505 14.8743 10.7894C14.9861 10.7626 15.0993 10.768 15.2118 10.768C15.3321 10.7684 15.4475 10.7937 15.5596 10.8423C15.7886 10.9412 15.9407 11.1209 16.0079 11.3923C16.0346 11.4963 16.0461 11.6012 16.0543 11.7077C16.0693 11.8994 16.0668 12.0909 16.0668 12.2823C16.0668 12.7573 16.0668 13.232 16.0668 13.7066C16.0668 13.7255 16.0668 13.7437 16.0668 13.7627C16.0661 13.8727 16.0632 13.8766 15.9711 13.8769C15.8903 13.8776 15.8111 13.8773 15.7315 13.8769C15.7143 13.8769 15.6975 13.8769 15.6811 13.8751C15.6486 13.8709 15.6361 13.8573 15.6339 13.822C15.6325 13.7937 15.6332 13.7659 15.6332 13.7373C15.6332 13.1023 15.6332 12.4669 15.6332 11.8319C15.6332 11.7659 15.6311 11.7005 15.6186 11.6355C15.5718 11.3951 15.4122 11.2359 15.2036 11.1934C15.0747 11.167 14.9447 11.1727 14.8172 11.2069C14.5282 11.2852 14.3457 11.4905 14.2629 11.8148C14.2289 11.9484 14.2193 12.0862 14.2186 12.2244C14.2179 12.7212 14.2186 13.2177 14.2186 13.7148C14.2186 13.7459 14.2193 13.7773 14.2171 13.8091C14.2143 13.8573 14.2025 13.8709 14.1629 13.8759C14.1489 13.8773 14.1357 13.8773 14.1214 13.8773C14.045 13.8776 13.9668 13.8776 13.8904 13.8773C13.8793 13.8773 13.8679 13.8776 13.8572 13.8769C13.8097 13.8726 13.7982 13.8609 13.7957 13.8094C13.795 13.7848 13.7957 13.7587 13.7957 13.7337C13.7957 13.2744 13.7957 12.8159 13.7957 12.3566Z" fill="#B2A8EB"/>
</g>
<defs>
<clipPath id="clip0_298_1838">
<rect width="25" height="25" fill="white" transform="translate(0 -1)"/>
</clipPath>
</defs>
</svg>
