<svg width="25" height="23" viewBox="0 0 25 23" fill="none" xmlns="http://www.w3.org/2000/svg">
<g clip-path="url(#clip0_298_1832)">
<path d="M65.1789 -42.4648H-6.60681V110.035H65.1789V-42.4648Z" fill="#D9E0EB"/>
<path d="M20.3183 3.5909C21.2772 4.9384 21.6536 6.60193 21.3622 8.228C21.2286 8.99336 20.925 9.72196 20.5 10.3773C21.1315 11.567 21.3375 12.9391 21.095 14.2623C20.804 15.8526 19.869 17.2488 18.4972 18.1106L13.4833 21.303C10.6304 23.1245 6.67254 22.2745 4.68147 19.4091C3.72254 18.0859 3.34611 16.4105 3.63754 14.7837C3.77111 14.0191 4.07469 13.2905 4.49969 12.6348C3.86826 11.4452 3.66219 10.073 3.90469 8.75012C4.19611 7.1594 5.13111 5.75159 6.5029 4.90159L11.5168 1.69698C14.3697 -0.123733 18.315 0.72626 20.3183 3.5909Z" fill="#B2A8EB"/>
<path d="M11.019 19.7006C11.3829 19.6038 11.7233 19.4577 12.0387 19.2517L17.0526 16.0588C17.8783 15.537 18.4487 14.6992 18.6187 13.7399C18.7887 12.7689 18.5697 11.7613 17.9872 10.9481C17.0404 9.5763 15.3287 8.94527 13.714 9.35777C13.3497 9.45491 13.0101 9.60065 12.6944 9.80708L10.7762 11.021C10.679 11.0817 10.5822 11.1303 10.4726 11.1542C9.98723 11.2756 9.46509 11.0939 9.18581 10.681C9.01581 10.4385 8.94295 10.1349 8.99152 9.84309C9.04009 9.55202 9.21009 9.29701 9.46509 9.1513L14.479 5.95846C14.5758 5.89775 14.6729 5.84881 14.7826 5.82488C15.2683 5.70345 15.7901 5.88558 16.0697 6.29808C16.2272 6.51665 16.3004 6.78387 16.2762 7.03887V7.22102C16.264 7.22102 16.4462 7.28136 16.4462 7.28136C17.1504 7.50028 17.8179 7.82811 18.4126 8.26489L18.6676 8.45916L18.7647 8.16811C18.8133 8.01025 18.8497 7.85242 18.8862 7.69456C19.0562 6.72314 18.8376 5.71595 18.2547 4.90238C17.3079 3.53059 15.5962 2.89956 13.9815 3.31241C13.6172 3.40956 13.2772 3.55529 12.9619 3.76172L7.94795 6.95421C7.12224 7.47635 6.55188 8.31418 6.38188 9.27311C6.21188 10.2442 6.43081 11.2517 7.01331 12.0649C7.96009 13.4367 9.67188 14.0678 11.2865 13.6553C11.6508 13.5585 11.9908 13.4124 12.3062 13.206L14.2244 11.9799C14.3215 11.9189 14.4183 11.8703 14.528 11.8463C15.0133 11.7246 15.5354 11.907 15.8147 12.3195C15.9847 12.5624 16.0576 12.8656 16.009 13.1574C15.9604 13.4488 15.7905 13.7039 15.5354 13.8617L10.5215 17.0546C10.4247 17.1149 10.3276 17.1639 10.2179 17.1878C9.73224 17.3092 9.21045 17.127 8.93081 16.7145C8.77295 16.4963 8.70009 16.2288 8.72438 15.9742V15.7917C8.73652 15.7917 8.55438 15.7313 8.55438 15.7313C7.85009 15.5128 7.18259 15.1849 6.58759 14.7478L6.33259 14.5534L6.23545 14.8446C6.18688 15.0024 6.15045 15.1603 6.11402 15.3181C5.94402 16.2895 6.16259 17.2971 6.74545 18.1103C7.69259 19.4821 9.40438 20.1135 11.019 19.7006Z" fill="#D9E0EB"/>
</g>
<defs>
<clipPath id="clip0_298_1832">
<rect width="25" height="25" fill="white" transform="translate(0 -1)"/>
</clipPath>
</defs>
</svg>
